<svg version="1.1" xmlns="http://www.w3.org/2000/svg" width="533.303" height="123.079" viewBox="0 0 533.303 123.079">
  <path d="m49.005 41.294 0.4 -0.001 1.093 -0.001 1.183 -0.002 2.314 -0.002 1.882 -0.001 5.632 -0.002h0.29q2.334 0 4.666 -0.006 2.398 -0.005 4.796 -0.005 1.346 0 2.69 -0.004 1.146 -0.004 2.292 -0.001 0.583 0.002 1.168 -0.001 0.635 -0.002 1.27 0.001l0.367 -0.004c1.302 0.011 2.428 0.314 3.366 1.237 0.677 0.789 0.918 1.487 0.917 2.513v0.238l-0.002 0.775v0.539l-0.002 1.417 -0.002 1.446 -0.006 2.837 0.26 -0.102q0.482 -0.19 0.967 -0.375l0.619 -0.242c0.922 -0.351 1.7 -0.571 2.665 -0.286 0.422 0.321 0.594 0.609 0.74 1.118 0.085 1.056 -0.055 2.044 -0.282 3.073l-0.092 0.432 -0.251 1.168 -0.268 1.25 -0.518 2.411q-0.3 1.386 -0.596 2.773 -0.386 1.806 -0.775 3.61a1511.404 1511.404 0 0 0 -1.31 6.128l-0.463 2.183 -0.35 1.653 -0.321 1.515 -0.113 0.54c-0.476 2.276 -0.476 2.276 -1.362 2.859 -0.423 0.21 -0.88 0.164 -1.34 0.111 -0.784 -0.294 -1.455 -0.774 -2.116 -1.278l-0.558 -0.417 -0.284 -0.214a158.771 158.771 0 0 0 -1.349 -1.002l-0.265 -0.196q-1.028 -0.754 -2.063 -1.497a141.54 141.54 0 0 1 -2.524 -1.873c-0.458 0.18 -0.756 0.511 -1.089 0.859 -0.364 0.377 -0.731 0.737 -1.129 1.079 -0.593 0.512 -1.13 1.077 -1.671 1.641 -0.975 0.993 -0.975 0.993 -1.716 1.008l-0.314 -0.007c-0.016 -1.426 0.059 -2.847 0.149 -4.27a67.693 67.693 0 0 0 0.07 -1.273q0.027 -0.623 0.071 -1.246 0.015 -0.235 0.022 -0.469c0.03 -0.821 0.123 -1.412 0.721 -1.989a14.769 14.769 0 0 1 0.865 -0.694 30.77 30.77 0 0 0 0.447 -0.39l0.21 -0.182q0.459 -0.406 0.907 -0.825 0.655 -0.603 1.326 -1.186 0.459 -0.407 0.907 -0.825 0.655 -0.603 1.326 -1.186 0.459 -0.406 0.907 -0.825 0.655 -0.603 1.326 -1.186 0.459 -0.407 0.907 -0.825 0.657 -0.608 1.332 -1.194a97.232 97.232 0 0 0 0.761 -0.672l0.271 -0.241 0.207 -0.181c-1.941 -0.177 -3.184 -0.058 -4.74 1.131 -0.553 0.405 -1.141 0.757 -1.723 1.118l-0.348 0.22 -0.327 0.207 -0.29 0.183a5.662 5.662 0 0 1 -0.834 0.382l0.111 0.335 -0.266 0.014c-0.582 0.142 -1.012 0.454 -1.506 0.783l-0.663 0.43 -0.346 0.225c-0.662 0.428 -1.334 0.844 -2.004 1.26q-0.886 0.55 -1.762 1.111l-0.367 0.234 -0.697 0.447 -0.318 0.202 -0.278 0.178c-0.622 0.311 -1.088 0.25 -1.738 0.046l-0.23 -0.07 -0.747 -0.235 -0.523 -0.162 -1.095 -0.343 -1.397 -0.437 -1.081 -0.337 -0.514 -0.16c-2.574 -0.801 -2.574 -0.801 -3.007 -1.398 -0.171 -0.396 -0.118 -0.544 0.042 -0.95 0.519 -0.822 1.692 -1.129 2.554 -1.465l0.364 -0.144c1.468 -0.578 2.943 -1.138 4.417 -1.7l0.85 -0.324 2.047 -0.779h-0.217q-2.615 -0.006 -5.23 -0.02l-2.529 -0.01q-1.103 -0.002 -2.206 -0.009 -0.583 -0.005 -1.167 -0.005 -0.652 0 -1.306 -0.006l-0.386 0.001c-1.045 -0.014 -2.005 -0.27 -2.82 -0.956 -0.828 -1.017 -1.039 -1.804 -1.038 -3.097l-0.002 -0.398 -0.004 -1.3 -0.001 -0.449q-0.004 -1.177 -0.002 -2.354 0 -1.094 -0.006 -2.187 -0.005 -0.942 -0.005 -1.884 0 -0.561 -0.004 -1.122 -0.002 -0.628 0 -1.254l-0.004 -0.37c0.009 -1.119 0.306 -1.994 1.079 -2.81 0.948 -0.896 1.809 -1.012 3.084 -1.007" fill="#894C9E"/>
  <path d="m82.648 24.794 0.316 0.14c3.391 1.529 6.608 3.555 9.347 6.084a32 32 0 0 0 0.693 0.613c0.512 0.447 0.994 0.919 1.476 1.401l0.268 0.268c0.543 0.548 1.054 1.102 1.529 1.71 0.239 0.305 0.491 0.597 0.745 0.89a30.277 30.277 0 0 1 3.041 4.431l0.251 0.436c2.778 4.758 4.432 10.148 4.895 15.636l0.037 0.414c0.758 9.803 -2.45 19.477 -8.638 27.061l-0.156 0.192c-0.795 0.967 -1.657 1.866 -2.539 2.754l-0.306 0.31a25.846 25.846 0 0 1 -2.137 1.882l-0.391 0.329c-5.797 4.819 -13.142 7.574 -20.605 8.27l-0.245 0.023c-8.064 0.757 -16.677 -1.349 -23.433 -5.83l-0.37 -0.238c-1.196 -0.779 -2.325 -1.65 -3.428 -2.554l-0.322 -0.26c-0.923 -0.757 -1.771 -1.588 -2.615 -2.428l-0.172 -0.172a27.077 27.077 0 0 1 -2.138 -2.39l-0.352 -0.428a30.77 30.77 0 0 1 -2.103 -2.923l-0.233 -0.364a56.616 56.616 0 0 1 -0.661 -1.087L34.286 78.77c-5.044 -8.512 -6.356 -18.846 -4.009 -28.411a37.908 37.908 0 0 1 3.116 -8.149 49.231 49.231 0 0 0 0.337 -0.667c0.922 -1.826 2.087 -3.526 3.349 -5.135l0.212 -0.274a51.693 51.693 0 0 1 0.682 -0.842l0.272 -0.335a35.693 35.693 0 0 1 2.249 -2.437l0.292 -0.295a25.846 25.846 0 0 1 2.102 -1.849l0.608 -0.523c9.243 -7.694 22.294 -10.094 39.154 -5.061m-38.197 7.594 -0.352 0.289c-1.547 1.284 -2.996 2.699 -4.227 4.291l-0.302 0.364c-3.53 4.256 -5.83 9.35 -7.068 14.714l-0.07 0.306c-1.959 8.703 -0.223 18.325 4.483 25.875a40.616 40.616 0 0 0 2.177 3.081l0.225 0.29c0.457 0.581 0.937 1.134 1.435 1.68a29.539 29.539 0 0 1 0.609 0.697 20.185 20.185 0 0 0 2.672 2.558q0.373 0.303 0.731 0.622c1.406 1.238 2.983 2.26 4.602 3.2l0.226 0.134c5.283 3.105 11.406 4.692 17.524 4.697h0.246a34.831 34.831 0 0 0 7.911 -0.922l0.325 -0.074c4.854 -1.132 9.369 -3.353 13.301 -6.403l0.292 -0.225c0.581 -0.457 1.134 -0.937 1.679 -1.434a28.308 28.308 0 0 1 0.689 -0.602 20.923 20.923 0 0 0 2.683 -2.796c0.247 -0.311 0.505 -0.609 0.764 -0.911 5.795 -6.977 8.455 -16.383 7.643 -25.37 -0.617 -5.975 -2.549 -11.87 -6.044 -16.798l-0.26 -0.377a30.77 30.77 0 0 0 -2.086 -2.64l-0.208 -0.242a55.385 55.385 0 0 0 -0.574 -0.651l-0.258 -0.293a28.8 28.8 0 0 0 -4.143 -3.817 38.154 38.154 0 0 1 -0.495 -0.383 32.862 32.862 0 0 0 -8.282 -4.666l-0.281 -0.11c-10.298 -4.048 -22.274 -2.858 -35.571 5.918" fill="#6A74B6"/>
  <path d="M248.838 51.153h1.451v10.052h-0.335v2.011h-0.335l0.004 0.31 0.004 0.402 0.004 0.401c-0.011 0.338 -0.011 0.338 -0.123 0.562h-0.335v1.004h-0.335v0.894l-0.335 0.111v0.558l-0.335 0.111 -0.111 0.671h-0.335v0.335H247.388v0.671h-0.335v0.335h-0.447v0.671h-0.335v0.335h-0.335v0.335h-0.335l-0.111 0.335h-0.335v0.335h-0.335v0.335h-0.335v0.335h-0.447v0.335h-0.335l-0.111 0.335h-0.558v0.335h-0.447v0.335h-0.671v0.335h-0.447v0.335h-0.671v0.335h-0.782v0.335h-0.671v0.335h-0.782v0.335h3.35v1.675h-0.447v0.335h-82.312v-0.335h-0.335v-1.34h0.335v-0.335h65.224v-0.335h-0.782v-0.335h-0.671v-0.335h-0.447v-0.335h-0.671v-0.335l-0.447 -0.111v-0.224l-0.335 -0.111v-0.224h-0.335v-0.671h-0.447v-0.335h-0.335v-0.335l-0.335 -0.111v-0.558h-0.335v-0.671l-0.447 -0.111v-0.558h-0.335v-0.671l-0.335 -0.111v-0.894h-0.335l-0.111 -1.004h-0.335v-1.004l-0.335 -0.111v-1.564h-0.335v-1.675h1.004v0.335h0.782v0.335h0.782v0.335h1.004v0.335h1.118v0.335h1.118v0.335h1.118v0.335h1.451v0.335h0.782v0.335h1.004v0.335h0.671l0.111 0.335h0.335v0.335h0.782v0.335h0.335v0.335h0.335v0.335h0.447v0.335h0.335v0.335h0.335v0.335h0.335v0.671h0.447v-2.346h0.335v-1.34h0.335v-1.004h0.447v-1.004h0.335v-0.335h0.335v-0.671h0.335l0.111 -0.671h0.335v-0.335h0.335v-0.335h0.335v-0.335h0.447v-0.671h0.335v-0.335h0.335l0.111 -0.335h0.671v-0.335h0.335v-0.335h0.335v-0.335h0.447v-0.335h0.335v-0.335h0.671v-0.335h0.447v-0.335h0.671v-0.335h0.447v-0.335h0.671v-0.335h0.782v-0.335h0.335v-0.335h0.671v-0.335h0.782v-0.335h0.335v-0.335h0.782v-0.335h0.335v-0.335h0.782v-0.335h0.335v-0.335h0.335v-0.335h0.447v-0.335h0.671v-0.335h0.335v-0.335h0.447v-0.335h0.335v-0.335h0.335zm-16.864 22.784v1.675h0.782v-0.671h-0.335v-1.004z" fill="#64B748"/>
  <path d="M87.828 51.265c0.422 0.321 0.594 0.609 0.74 1.118 0.085 1.056 -0.055 2.044 -0.282 3.073l-0.092 0.432 -0.251 1.168 -0.268 1.25 -0.518 2.411q-0.3 1.386 -0.596 2.773l-0.775 3.61a1511.404 1511.404 0 0 0 -1.31 6.128l-0.463 2.183 -0.35 1.653 -0.321 1.515 -0.113 0.54c-0.476 2.277 -0.476 2.277 -1.362 2.86 -0.423 0.21 -0.88 0.164 -1.34 0.111 -0.784 -0.294 -1.455 -0.774 -2.116 -1.278l-0.558 -0.417 -0.284 -0.214a158.771 158.771 0 0 0 -1.349 -1.002l-0.265 -0.196q-1.028 -0.754 -2.063 -1.497a141.54 141.54 0 0 1 -2.524 -1.873c-0.458 0.18 -0.756 0.511 -1.089 0.859 -0.364 0.377 -0.731 0.737 -1.129 1.079 -0.593 0.512 -1.13 1.077 -1.671 1.641 -0.975 0.993 -0.975 0.993 -1.716 1.008l-0.314 -0.007c-0.016 -1.426 0.059 -2.847 0.149 -4.27a67.693 67.693 0 0 0 0.07 -1.273q0.027 -0.623 0.071 -1.246 0.015 -0.235 0.022 -0.469c0.03 -0.821 0.123 -1.412 0.721 -1.989a14.769 14.769 0 0 1 0.865 -0.694 30.77 30.77 0 0 0 0.447 -0.39l0.21 -0.182q0.459 -0.406 0.907 -0.825 0.655 -0.603 1.326 -1.186 0.459 -0.407 0.907 -0.825 0.655 -0.603 1.326 -1.186 0.459 -0.406 0.907 -0.825 0.655 -0.603 1.326 -1.186 0.459 -0.407 0.907 -0.825c0.442 -0.407 0.885 -0.812 1.345 -1.199 0.23 -0.199 0.23 -0.199 0.45 -0.465 0.507 -0.549 0.879 -0.786 1.618 -0.825q0.395 -0.006 0.79 -0.009c0.902 -0.014 1.719 -0.363 2.416 -0.929 0.881 -0.935 1.004 -2.252 1.02 -3.475l0.006 -0.319 0.017 -0.997 0.014 -0.681q0.016 -0.828 0.03 -1.658 0.612 -0.242 1.227 -0.478l0.619 -0.242c0.922 -0.351 1.7 -0.571 2.665 -0.286" fill="#46A5D4"/>
  <path d="M211.646 28.592h4.244a81.232 81.232 0 0 1 1.926 2.586c0.351 0.492 0.71 0.978 1.068 1.463q0.772 1.042 1.529 2.094a226.465 226.465 0 0 0 1.703 2.33 185.849 185.849 0 0 1 1.563 2.151l0.17 0.236 0.148 0.206c0.196 0.262 0.402 0.518 0.607 0.773l0.111 -11.839h4.915v20.662h-4.133a45.539 45.539 0 0 1 -1.578 -2.059 176.002 176.002 0 0 0 -1.551 -2.127 227.695 227.695 0 0 1 -1.687 -2.315q-0.756 -1.045 -1.524 -2.08a220.311 220.311 0 0 1 -1.573 -2.161l-0.171 -0.236 -0.149 -0.208a45.539 45.539 0 0 0 -0.481 -0.647l-0.111 11.839h-5.025z" fill="#4D5C79"/>
  <path d="M493.466 34.211c0.686 0.59 1.041 1.392 1.417 2.198l0.086 -0.209c0.587 -1.298 1.492 -2.073 2.817 -2.583a6.031 6.031 0 0 1 4.521 0.363c1.015 0.617 1.798 1.529 2.18 2.654l0.133 0.384c0.197 0.862 0.219 1.733 0.217 2.614l0.001 0.314v1.722l-0.001 1.477v4.057l-0.001 0.974 0.001 0.294c-0.002 0.662 -0.002 0.662 -0.127 0.786q-0.236 0.015 -0.474 0.012h-0.305l-0.331 -0.002h-0.338l-1.072 -0.004 -0.725 -0.001 -1.781 -0.006 -0.002 -0.35 -0.03 -3.263q-0.009 -0.838 -0.015 -1.678 -0.006 -0.811 -0.016 -1.62l-0.005 -0.617c0.07 -1.862 0.07 -1.862 -0.603 -3.531 -0.56 -0.517 -1.013 -0.591 -1.751 -0.583 -0.398 0.039 -0.684 0.183 -1.041 0.361l-0.335 0.111c-0.128 0.251 -0.128 0.251 -0.224 0.558l-0.116 0.293c-0.133 0.465 -0.142 0.885 -0.143 1.365l-0.004 0.294q-0.006 0.479 -0.006 0.958l-0.006 0.666 -0.015 1.748 -0.02 2.1q-0.015 1.593 -0.026 3.187h-4.912l-0.017 -2.094 -0.012 -1.316q-0.011 -1.044 -0.018 -2.087l-0.016 -1.684q-0.004 -0.32 -0.005 -0.641l-0.009 -0.901 -0.001 -0.266c-0.011 -0.773 -0.108 -1.551 -0.593 -2.18 -0.622 -0.447 -1.26 -0.533 -2.011 -0.447 -0.53 0.155 -0.827 0.358 -1.158 0.802 -0.366 0.757 -0.438 1.578 -0.441 2.406l-0.004 0.277q-0.006 0.449 -0.006 0.897l-0.006 0.626 -0.015 1.642 -0.02 1.974q-0.015 1.495 -0.026 2.99h-5.137l-0.006 -6.067 -0.002 -2.817 -0.002 -2.454 -0.001 -1.3 -0.001 -1.222 -0.001 -0.666v-0.743c0.016 -0.255 0.016 -0.255 0.127 -0.367a7.385 7.385 0 0 1 0.474 -0.012h0.305l0.331 0.002h0.338l1.072 0.004 0.725 0.001 1.781 0.006 0.111 2.569 0.558 -1.004c1.519 -2.085 4.654 -2.425 6.736 -0.97" fill="#4C5D79"/>
  <path d="M143.028 30.587c2.192 1.958 3.102 4.791 3.27 7.654 0.107 2.838 -0.458 5.85 -2.39 8.031l-0.503 0.524 -0.186 0.212c-1.663 1.823 -4.335 2.462 -6.7 2.572 -2.773 0.081 -5.386 -0.619 -7.52 -2.449 -1.775 -1.69 -2.64 -3.766 -3.015 -6.143l-0.044 -0.257c-0.422 -2.929 0.146 -6.314 1.918 -8.729 0.224 -0.289 0.457 -0.566 0.695 -0.843l0.19 -0.228c3.505 -3.867 10.512 -3.463 14.287 -0.345m-10.337 3.5c-1.398 1.856 -1.584 4.27 -1.313 6.511 0.262 1.538 0.903 2.98 2.165 3.929 1.106 0.736 2.281 0.871 3.588 0.652 1.239 -0.324 2.207 -1.15 2.871 -2.231 1.004 -1.911 1.143 -4.337 0.61 -6.415 -0.452 -1.436 -1.122 -2.759 -2.496 -3.507 -1.89 -0.863 -4.033 -0.53 -5.424 1.062" fill="#4C5C79"/>
  <path d="M444.122 34.196c0.666 0.522 1.241 1.119 1.618 1.877l0.111 -2.457h5.137q0.007 3.024 0.011 6.047 0.001 1.403 0.006 2.807l0.005 2.449 0.002 1.296q0.002 0.61 0.001 1.222l0.002 0.656c-0.005 1.94 -0.357 3.422 -1.698 4.854 -1.771 1.712 -4.411 2.156 -6.787 2.138 -2.095 -0.047 -4.308 -0.544 -5.879 -2.015 -0.779 -0.837 -1.314 -1.77 -1.298 -2.924q1.038 -0.025 2.075 -0.037 0.352 -0.005 0.706 -0.014 0.506 -0.011 1.015 -0.015l0.319 -0.01c0.282 0 0.527 0.006 0.799 0.076 0.279 0.327 0.279 0.327 0.447 0.671 0.214 0.186 0.214 0.186 0.447 0.314l0.224 0.134c0.777 0.38 1.92 0.329 2.753 0.161 0.69 -0.244 1.164 -0.629 1.49 -1.281 0.128 -0.393 0.124 -0.763 0.122 -1.174l-0.001 -0.423 -0.004 -0.441 -0.001 -0.446 -0.006 -1.09 -0.129 0.206c-0.651 1.007 -1.413 1.63 -2.551 2.028l-0.215 0.076c-1.252 0.353 -2.826 0.288 -4.028 -0.188l-0.283 -0.111c-1.499 -0.67 -2.422 -1.887 -3.039 -3.371 -0.967 -2.721 -0.88 -5.963 0.32 -8.604 0.651 -1.307 1.746 -2.361 3.114 -2.878 1.695 -0.529 3.663 -0.544 5.194 0.468m-3.182 4.22c-0.786 1.086 -0.914 2.671 -0.725 3.958 0.212 1.142 0.54 1.959 1.508 2.63 0.702 0.351 1.578 0.348 2.321 0.134 0.837 -0.366 1.2 -0.911 1.59 -1.708 0.438 -1.142 0.426 -2.864 -0.006 -4.006 -0.421 -0.878 -0.895 -1.541 -1.847 -1.882 -1.084 -0.315 -2.095 0.021 -2.841 0.873" fill="#4C5C7A"/>
  <path d="M259.448 58.859h4.021v0.335h0.782v0.335h1.118v-0.335h2.457v0.335h1.118v0.335h1.118v0.335h0.335v0.335h0.782v-0.335h0.335v-0.335h0.782v-0.335h0.335v-0.335h1.118v0.335h1.451v0.335h1.451v-0.335h0.335l0.111 -0.335h2.122v0.335h1.118v0.335h0.335l0.111 -0.335h0.335v-0.335h2.457v0.335h1.118v0.335h0.782v0.335h0.671v0.335h1.118v-0.335h0.447v-0.335h1.004v-0.335h1.118v-0.335h1.118v0.335h0.671l0.111 0.224 0.335 0.111v1.228c-0.43 0.215 -0.982 0.117 -1.451 0.111v1.228l-0.447 0.111v7.371h-0.335v0.335h-1.004l-0.111 -0.335h-0.335v-0.671h-0.335v-1.004h-0.335v-0.335h-0.447v2.011h-0.335v0.335h-1.787v-0.335h-0.335c-0.128 -0.256 -0.124 -0.4 -0.122 -0.684l0.001 -0.273 0.004 -0.286 0.001 -0.288 0.006 -0.704 0.447 -0.111v-0.335h1.451v-0.335h-0.671l-0.111 -0.335h-0.335v-0.335h-0.335v-0.335h-0.447v-0.335h-0.335v-0.335h-0.335v-0.335h-0.335c-0.159 -0.316 -0.127 -0.59 -0.126 -0.942l-0.001 -0.39c0.015 -0.343 0.015 -0.343 0.126 -0.679h0.335v-0.335h0.335v-0.335h0.335v-0.335h0.447V61.539l-0.447 -0.111v-0.224h-0.671v-0.335h-1.451l0.007 0.354 0.006 0.462 0.006 0.234c0.005 0.421 -0.004 0.601 -0.242 0.96h-0.224v1.004l0.447 0.111v3.909l0.335 0.111v0.894h-0.335l-0.111 0.671h-1.34v-0.335l-0.447 -0.111v-6.922h-0.335v-0.671h-0.335v-0.335h-1.899v1.004l0.447 0.111v0.894h0.335v1.675h-0.335l0.002 0.295 0.005 1.082 0.002 0.469 0.002 0.672 0.002 0.41c-0.014 0.309 -0.014 0.309 -0.124 0.42q-0.45 0.011 -0.901 0.006l-0.257 -0.001 -0.63 -0.006v-0.335h-0.335v-2.011l-0.335 -0.111v-0.224h-1.118v-0.335h-0.447v3.35h0.447q0.005 0.303 0.006 0.608l0.004 0.341c-0.01 0.279 -0.01 0.279 -0.122 0.39a16 16 0 0 1 -0.677 0.006l-0.374 -0.004 -0.289 -0.004v-0.335h-0.447v-0.335h-0.335v-0.335h-0.671v-0.335l-0.447 -0.111v-0.224h-0.335v-0.335h-0.335v-0.335h-0.335l-0.111 -0.224 -0.335 -0.111v-0.335h-0.335v-0.335h-0.335v-0.335l-0.447 -0.111v-0.224h-0.335v-0.671h-0.335v-0.671h-0.335v-1.665h0.335v-0.335h0.335v-0.335h0.335v-0.335h0.447v-0.335l-0.447 -0.111v-0.224h-0.671v-0.335h-1.451l-0.111 0.335h-0.335v6.031h0.447v1.675h-0.447v0.335h-0.671v0.558l-0.335 0.111v0.224l0.335 0.224v0.224h0.335v0.335h0.335v0.335h0.335c0.245 0.21 0.245 0.21 0.447 0.447v0.224h0.335v0.335h1.451v0.335h0.447l0.006 0.711 0.004 0.401c-0.012 0.335 -0.012 0.335 -0.123 0.558h-2.122v-0.335h-0.671v-0.335h-0.447v-0.335h-0.335v-0.335h-0.335v-0.335h-0.447v-0.335h-0.335v-0.335h-0.671v-0.335h-1.118l-0.111 0.335h-2.457v-0.335l-0.447 -0.111v-0.224l-0.272 0.006c-0.288 -0.011 -0.288 -0.011 -0.401 -0.123a9.846 9.846 0 0 1 -0.011 -0.572l0.001 -0.351 0.004 -0.368 0.001 -0.369 0.006 -0.907h0.671l0.111 -0.335h2.903v0.335h1.004v-0.558l0.447 -0.111v-0.671h0.335v-1.004h-0.671v-0.335h-0.447v-0.335h-0.335v-0.335h-0.782v0.335h-0.335v0.558l-0.335 0.111 -0.111 0.335h-0.335v0.335h-0.671v0.335h-0.335l-0.111 0.335h-1.34v-0.335h-0.335c-0.177 -0.356 -0.123 -0.741 -0.119 -1.131l0.006 -0.88h1.899v-0.335h0.335v-0.335h0.335v-0.671h-0.671v-0.335h-0.671l-0.111 -0.335h-0.335v-0.335l-0.327 0.006c-0.342 -0.009 -0.342 -0.009 -0.454 -0.121a11.077 11.077 0 0 1 0 -0.558l-0.335 -0.111v-0.558h-0.335v-0.335h-0.335l-0.111 -0.224c-0.338 -0.073 -0.338 -0.073 -0.671 -0.111v-0.335h-0.335v-1.004h0.335v-0.335h0.671v0.335h1.118v0.335h0.447v-0.335h0.335v-0.335h0.335zm1.118 1.675v0.335l-0.202 0.042c-0.274 0.065 -0.274 0.065 -0.58 0.293v0.335h0.335l0.111 0.335h0.335v0.335h0.671v0.335h0.447v0.335h0.335v0.335h1.118v0.335h0.671v0.335h0.782v-2.346h-0.335v-0.335l-0.782 -0.111v-0.224h-0.671v-0.335zm13.849 1.004v2.346h1.564v-0.671h0.335v-0.335h0.335v-0.335l-0.224 -0.111c-0.07 -0.287 -0.07 -0.287 -0.111 -0.558h-0.335v-0.335l-0.593 -0.063 -0.334 -0.036c-0.313 -0.032 -0.313 -0.032 -0.636 0.097m-2.122 0.335 -0.111 0.224c-0.342 0.07 -0.342 0.07 -0.671 0.111v0.335h-0.335v0.335h-0.335v0.335h-0.447v0.335h-0.335v0.335h0.335v0.335l0.335 0.111 0.111 0.224h0.671l0.111 -0.224c0.342 -0.07 0.342 -0.07 0.671 -0.111v-0.335h0.335V61.872zm15.301 0.335v0.335h-0.335l-0.111 0.224 -0.558 0.111 -0.111 0.224 -0.335 0.111v0.335h-0.335v0.335h-0.335v0.335h0.335v0.335h0.335v0.335h0.447v0.335h0.671v0.335h0.335v0.335h0.782v-3.797c-0.262 0 -0.526 0.069 -0.782 0.111m-1.004 5.025v0.335h0.335v-0.335zm-25.689 2.679v0.335h0.782v-0.335z" fill="#000000"/>
  <path d="M311.828 80.972h3.574l0.111 0.335h1.004v0.335h0.782v0.335h0.335v0.335l0.447 0.111v0.224h0.335v0.335h0.335v0.335h0.335v0.671l0.447 0.111v0.558h0.335v1.004h0.335v6.031h-0.335v1.004h-0.335v0.558l-0.447 0.111v0.671h-0.335v0.335h-0.335v0.335h-0.335l-0.111 0.335h-0.335v0.335h-0.335v0.335h-0.782v0.335h-1.004l-0.111 0.335h-3.239v-0.335h-1.451v-0.335h-0.335v-0.335h-0.671l-0.111 -0.335h-0.335v-1.004l0.327 -0.042 0.34 -0.063 0.111 -0.224h0.894l0.111 0.335h0.782v-0.224a39.385 39.385 0 0 1 0.558 -0.447l0.224 -0.335h0.335v-0.671h0.335v-1.228l0.335 -0.111v-5.025h-0.335v-1.004h-0.335v-0.671l-0.447 -0.111v-0.558h-0.671v-0.335h-0.782v0.335h-0.671v0.558l-0.447 0.111v0.335h-0.335v1.004h-0.335v1.004h-0.335l0.004 0.208 0.004 0.274 0.004 0.271c-0.009 0.252 -0.009 0.252 -0.122 0.587h-0.335v0.671h-0.335v1.34l0.335 0.111v0.224h0.447v9.605l-0.447 0.111v0.335h-2.457l-0.111 -0.335h-0.671v-0.335h-0.782v-0.335h-0.335v-0.335h-0.335v-0.335h-0.447v-0.335h-0.335V97.724h-0.335l-0.006 -6.373 -0.002 -2.959 -0.002 -2.577 -0.001 -1.365 -0.001 -1.285 -0.001 -0.473v-1.006c0.01 -0.271 0.01 -0.271 0.122 -0.382q0.31 -0.015 0.622 -0.011l0.38 0.001 0.401 0.002 0.402 0.001 0.987 0.006v0.335h0.782v0.335h0.671v0.335h0.335v0.335l0.447 0.111v0.224l0.335 0.111v0.558h0.335v-0.335h0.447v-0.671h0.335l0.111 -0.335h0.224l0.111 -0.335h0.671v-0.335h0.335v-0.335h1.118z" fill="#0D5242"/>
  <path d="M169.875 28.592h5.137v20.662h-5.025l-0.111 -2.457 -0.671 1.004c-0.542 0.592 -1.148 1.055 -1.899 1.34l-0.262 0.101c-1.551 0.507 -3.191 0.319 -4.66 -0.338 -1.553 -0.828 -2.462 -2.261 -3.009 -3.894a18.462 18.462 0 0 1 -0.335 -1.564l-0.044 -0.251c-0.343 -2.405 -0.05 -5.26 1.337 -7.308 0.288 -0.378 0.588 -0.722 0.942 -1.04l0.16 -0.162c1.03 -0.983 2.562 -1.356 3.958 -1.324 1.591 0.16 2.88 0.694 3.923 1.934l0.447 0.671zm-4.777 9.715c-0.97 1.337 -1.018 2.947 -0.775 4.526 0.206 0.986 0.62 1.728 1.442 2.324 0.679 0.351 1.391 0.368 2.122 0.182 0.722 -0.252 1.218 -0.646 1.578 -1.326 0.633 -1.438 0.672 -3.047 0.209 -4.547 -0.326 -0.806 -0.838 -1.506 -1.652 -1.865 -1.087 -0.3 -2.156 -0.149 -2.923 0.706" fill="#4C5C79"/>
  <path d="M266.818 77.958h1.675l0.111 0.335h1.118v0.335h0.671v0.335h0.671l0.111 0.335h0.335v0.335h0.335l0.111 0.671h0.335v0.671h0.335l0.111 4.021h0.224l0.111 -0.335h0.335v-0.335h0.335v-0.335h0.335l0.111 -0.335h0.671v-0.335h1.118v-0.335h2.457l0.111 0.224c0.314 0.053 0.314 0.053 0.677 0.07l0.374 0.026 0.289 0.017 0.111 0.335h0.671v0.335h0.335v0.335h0.447v0.335h0.335v0.335h0.335v0.671l0.447 0.111v0.558l0.335 0.111v11.616h-2.903v-0.335h-0.782v-0.335h-0.335v-0.335h-0.335v-0.335h-0.447v-0.335h-0.335v-0.335h-0.335v-0.671l-0.447 -0.111v-0.558h-0.335v-8.041h-0.335v-0.671h-0.335v-0.335h-1.118l-0.111 0.335h-0.335v0.335h-0.335v0.335h-0.335v0.671h-0.335l-0.111 0.671h-0.335v0.335h-0.335v0.671h-0.335v0.558l-0.335 0.111 -0.111 0.335h-0.335v0.335h-0.335v0.335h1.451v7.371h-2.569v-0.335h-0.671v-0.335h-0.782v-0.335h-0.335v-0.335h-0.335v-0.335h-0.447v-0.671h-0.335v-0.671h-0.335v-1.004l-0.447 -0.111V78.743l0.447 -0.111z" fill="#0D5342"/>
  <path d="M477.153 34.888c0.866 0.809 1.465 1.938 1.554 3.126q0.01 0.442 0.006 0.884v0.337l-0.004 1.094 -0.001 0.762 -0.006 2.001 -0.005 2.404 -0.01 3.647h-5.025l-0.111 -1.899 -0.327 0.405c-0.849 0.965 -2.079 1.649 -3.376 1.733 -1.925 0.075 -3.386 -0.159 -4.86 -1.482 -0.964 -1.004 -1.209 -2.207 -1.183 -3.54 0.05 -1.104 0.48 -2.034 1.259 -2.812 1.803 -1.596 4.419 -1.707 6.708 -1.808l0.555 -0.028q0.668 -0.033 1.337 -0.063l-0.044 -0.642 -0.025 -0.362c-0.063 -0.484 -0.194 -0.732 -0.491 -1.119 -0.7 -0.526 -1.498 -0.526 -2.346 -0.447 -0.598 0.177 -1.003 0.473 -1.34 1.004l-0.224 0.558h-4.58c0 -1.531 0.51 -2.63 1.593 -3.715 2.834 -2.457 8.059 -2.341 10.945 -0.042m-5.363 7.748 -0.39 0.021c-0.902 0.062 -1.593 0.175 -2.255 0.838 -0.276 0.454 -0.308 0.71 -0.224 1.234 0.204 0.496 0.394 0.646 0.831 0.95 0.761 0.254 1.818 0.239 2.569 -0.057 0.608 -0.321 1.122 -0.853 1.34 -1.508q0.011 -0.402 0.006 -0.802l-0.004 -0.431 -0.004 -0.326c-0.625 0 -1.247 0.043 -1.871 0.084" fill="#4C5C79"/>
  <path d="M316.325 34.888c0.866 0.809 1.465 1.938 1.554 3.126q0.009 0.442 0.006 0.884v0.337l-0.004 1.094 -0.001 0.762 -0.006 2.001 -0.005 2.404 -0.01 3.647h-5.025l-0.111 -1.899 -0.327 0.405c-0.849 0.965 -2.079 1.649 -3.376 1.733 -1.925 0.075 -3.386 -0.159 -4.86 -1.482 -0.964 -1.004 -1.209 -2.207 -1.183 -3.54 0.05 -1.104 0.48 -2.034 1.259 -2.812 1.803 -1.596 4.419 -1.707 6.708 -1.808l0.555 -0.028q0.668 -0.033 1.337 -0.063l-0.044 -0.642 -0.025 -0.362c-0.063 -0.484 -0.194 -0.732 -0.491 -1.119 -0.7 -0.526 -1.498 -0.526 -2.346 -0.447 -0.598 0.177 -1.003 0.473 -1.34 1.004l-0.224 0.558h-4.58c0 -1.531 0.51 -2.63 1.593 -3.715 2.834 -2.457 8.059 -2.341 10.945 -0.042m-5.363 7.748 -0.39 0.021c-0.902 0.062 -1.593 0.175 -2.255 0.838 -0.276 0.454 -0.308 0.71 -0.224 1.234 0.204 0.496 0.394 0.646 0.831 0.95 0.761 0.254 1.818 0.239 2.569 -0.057 0.608 -0.321 1.122 -0.853 1.34 -1.508q0.011 -0.402 0.006 -0.802l-0.004 -0.431 -0.004 -0.326c-0.625 0 -1.247 0.043 -1.871 0.084" fill="#4C5C79"/>
  <path d="M369.313 34.207c1.273 0.943 1.882 2.186 2.128 3.739 0.11 0.933 0.07 1.884 0.063 2.821l-0.001 0.737 -0.007 1.925q-0.006 1.158 -0.007 2.318 -0.006 1.753 -0.016 3.507h-5.137l-0.012 -2.038 -0.011 -1.282 -0.016 -2.033q-0.005 -0.82 -0.014 -1.641l-0.004 -0.624c0.046 -1.76 0.046 -1.76 -0.649 -3.321 -0.652 -0.501 -1.298 -0.738 -2.121 -0.649 -0.556 0.105 -0.991 0.255 -1.418 0.642 -0.533 0.853 -0.686 1.593 -0.693 2.59l-0.004 0.274 -0.009 0.894 -0.006 0.62 -0.017 1.632 -0.021 1.959 -0.032 2.975h-5.137V33.618h5.025l0.111 2.793 0.447 -0.894c1.729 -2.324 5.11 -2.913 7.559 -1.308" fill="#4D5C79"/>
  <path d="m351.701 34.958 0.35 0.251c1.52 1.454 2.288 3.59 2.35 5.669 0.03 2.603 -0.496 4.838 -2.315 6.78 -1.718 1.607 -4.051 2.025 -6.321 1.963 -2.033 -0.096 -4.06 -0.847 -5.472 -2.353 -1.601 -1.925 -2.053 -4.478 -1.831 -6.918 0.252 -2.231 1.09 -4.001 2.757 -5.492 2.896 -2.297 7.63 -2.132 10.483 0.102m-7.225 3.129c-0.684 1.03 -0.859 2.167 -0.852 3.383l0.002 0.313c0.022 1.248 0.249 2.338 1.039 3.339 0.635 0.585 1.204 0.704 2.041 0.695 0.394 -0.032 0.646 -0.142 0.975 -0.359l0.279 -0.167c0.939 -0.939 1.195 -2.155 1.215 -3.435 -0.002 -1.508 -0.044 -2.958 -1.159 -4.103 -0.51 -0.484 -0.966 -0.645 -1.662 -0.711 -0.8 0.026 -1.393 0.432 -1.877 1.05" fill="#4C5C79"/>
  <path d="M245.152 34.958c1.538 1.3 2.31 3.051 2.569 5.025 0.185 2.622 -0.049 5.167 -1.796 7.258 -1.439 1.504 -3.451 2.3 -5.52 2.37 -2.219 0.036 -4.378 -0.252 -6.087 -1.809l-0.236 -0.209c-1.515 -1.418 -2.164 -3.475 -2.254 -5.505 -0.062 -2.448 0.478 -4.703 2.081 -6.604 2.891 -2.963 8.035 -2.918 11.241 -0.527m-7.147 2.903c-1.079 1.705 -1.175 3.648 -0.782 5.584 0.293 1.038 0.746 1.686 1.662 2.251 0.606 0.24 1.359 0.17 1.962 -0.039 0.969 -0.684 1.451 -1.54 1.682 -2.688 0.228 -1.68 0.174 -3.627 -0.892 -5.031 -0.534 -0.604 -1.035 -0.831 -1.835 -0.895 -0.719 0.02 -1.27 0.343 -1.794 0.816" fill="#4C5C79"/>
  <path d="m406.538 34.958 0.283 0.212c1.458 1.246 2.057 3.206 2.286 5.038v2.346h-10.499c0.298 1.553 0.298 1.553 1.152 2.716 0.895 0.561 1.785 0.672 2.82 0.466a2.954 2.954 0 0 0 1.39 -0.838l0.335 -0.671h4.691c-0.331 1.822 -1.028 2.986 -2.501 4.115 -1.999 1.307 -4.689 1.53 -6.991 1.114 -2 -0.465 -3.598 -1.451 -4.719 -3.19 -0.825 -1.46 -1.132 -3.031 -1.124 -4.691l0.002 -0.354c0.036 -2.305 0.722 -4.304 2.302 -6.011 2.833 -2.673 7.593 -2.562 10.575 -0.251m-7.141 2.897c-0.428 0.635 -0.566 1.012 -0.677 1.794h5.472c-0.11 -0.994 -0.231 -1.567 -1.009 -2.193 -1.206 -0.785 -2.794 -0.724 -3.787 0.4" fill="#4C5C79"/>
  <path d="M430.649 34.665a19.693 19.693 0 0 1 0.46 0.405l0.228 0.193c1.55 1.406 2.098 3.483 2.229 5.503v1.787h-10.499c0.244 1.62 0.244 1.62 1.247 2.764 0.785 0.538 1.502 0.559 2.438 0.475 0.613 -0.123 1.121 -0.326 1.564 -0.782l0.447 -0.782h4.691c-0.343 1.721 -1.017 2.949 -2.443 4 -2.065 1.354 -4.647 1.669 -7.05 1.228 -1.756 -0.409 -3.447 -1.26 -4.478 -2.782 -1.401 -2.258 -1.769 -5.136 -1.162 -7.723 0.385 -1.454 1.088 -2.73 2.178 -3.769l0.182 -0.188c2.474 -2.38 7.319 -2.314 9.967 -0.327m-6.911 3.306c-0.379 0.565 -0.459 0.98 -0.558 1.675h5.472c-0.111 -0.891 -0.219 -1.515 -0.914 -2.107 -1.326 -0.913 -2.894 -0.786 -3.999 0.432" fill="#4C5C79"/>
  <path d="M189.705 34.845c1.551 1.273 2.233 2.871 2.62 4.804v2.903h-10.387c0.134 1.243 0.134 1.243 0.668 2.18 0.112 0.167 0.112 0.167 0.112 0.39l0.196 0.096q0.235 0.118 0.464 0.246c0.822 0.427 1.67 0.473 2.566 0.246 0.566 -0.207 0.97 -0.447 1.354 -0.924l0.116 -0.294c0.219 -0.265 0.219 -0.265 0.43 -0.314 0.284 -0.016 0.564 -0.014 0.848 -0.006l0.314 0.002q0.496 0.006 0.993 0.017l0.673 0.007q0.825 0.009 1.652 0.027c-0.401 1.723 -1.089 3.102 -2.603 4.112 -2.204 1.298 -4.803 1.604 -7.285 1.023 -1.826 -0.512 -3.376 -1.456 -4.379 -3.103 -1.313 -2.379 -1.404 -5.162 -0.726 -7.755 0.608 -1.961 1.702 -3.401 3.498 -4.407 2.767 -1.383 6.414 -1.153 8.876 0.748m-6.838 2.807c-0.498 0.62 -0.816 1.196 -0.816 1.996h5.472c-0.134 -1.071 -0.412 -1.659 -1.259 -2.324 -1.09 -0.747 -2.433 -0.434 -3.397 0.327" fill="#4C5C79"/>
  <path d="M289.939 82.983h5.249l0.111 0.335h0.782v0.335h0.671v0.335h0.782v0.335h0.335v0.335h0.671l0.111 0.335 0.335 0.111v0.224l0.335 0.111v0.558l0.447 0.111v0.224h0.335v0.671h0.335v0.671h0.335v1.004l0.447 0.111v3.574h-0.447v1.004h-0.335v0.671h-0.335v0.671h-0.335v0.335h-0.447v0.335h-0.335v0.335h-0.335v0.335h-0.335v0.335h-0.447v0.335h-0.335v0.335h-0.782v0.335h-0.335v0.335h-1.118v0.335h-5.472v-0.335h-1.004l-0.111 -0.224c-0.338 -0.073 -0.338 -0.073 -0.671 -0.111v-0.335h-0.335v-0.335h-0.447v-0.335h-0.671v-0.335h-0.335l-0.111 -0.224 -0.335 -0.111v-0.671h-0.335v-0.335h-0.335v-0.671h-0.447v-0.671h-0.335v-0.671h-0.335v-4.244l0.335 -0.111v-0.671h0.335v-0.671h0.447v-0.671h0.335v-0.335h0.335v-0.558l0.447 -0.111v-0.335h0.335l0.111 -0.335h0.558v-0.335h0.447v-0.335h0.671v-0.335h0.782v-0.335h0.671zm2.122 1.34v0.335h-0.335l-0.111 0.224 -0.335 0.111v1.004h-0.335v1.675h-0.335v5.696l0.224 0.111 0.111 1.899h0.335v0.671h0.335l0.111 0.335c0.132 0.197 0.132 0.197 0.335 0.335 0.281 0.041 0.281 0.041 0.58 0.021l0.305 -0.009 0.233 -0.009v-0.335h0.335c0.343 -0.251 0.373 -0.49 0.447 -0.894l0.224 -0.111c0.182 -0.5 0.154 -1.061 0.181 -1.586l0.043 -0.314 0.224 -0.111v-6.031h-0.335l0.006 -0.356a4.308 4.308 0 0 0 -0.119 -0.985h-0.335v-1.004h-0.335v-0.335h-0.335v-0.335z" fill="#0D5242"/>
  <path d="M378.841 28.592h16.531v4.356h-5.584l0.002 1.486 0.005 4.843 0.002 2.938 0.002 2.56 0.001 1.356 0.001 1.275 0.001 0.469v0.999c-0.015 0.267 -0.015 0.267 -0.127 0.378h-5.249V32.948h-5.584z" fill="#4C5C79"/>
  <path d="M299.313 34.671a19.693 19.693 0 0 1 0.454 0.399l0.208 0.176c1.047 0.953 1.573 2.25 1.803 3.621v1.004h-4.691l-0.447 -1.34 -0.335 -0.447v-0.224c-0.873 -0.448 -1.591 -0.662 -2.569 -0.447 -0.729 0.261 -1.125 0.767 -1.473 1.431 -0.606 1.461 -0.585 3.429 -0.084 4.907 0.272 0.646 0.61 1.221 1.222 1.593 0.759 0.271 1.502 0.318 2.26 0.01 0.575 -0.321 0.943 -0.747 1.202 -1.35l0.224 -0.894h4.691c0 1.744 -0.482 3.26 -1.713 4.535 -1.817 1.63 -4.014 2.031 -6.394 1.957 -1.726 -0.097 -3.302 -0.697 -4.624 -1.802l-0.244 -0.201c-1.458 -1.326 -2.121 -3.382 -2.228 -5.301 -0.105 -2.606 0.386 -4.867 2.101 -6.892 2.51 -2.714 7.738 -2.919 10.639 -0.735" fill="#4C5C79"/>
  <path d="M172.332 83.653h1.451v0.335h1.004l0.111 0.335h0.335v0.335l0.327 -0.006c0.343 0.007 0.343 0.007 0.455 0.121q0.006 0.281 0 0.558h0.335v0.335h0.335v0.671h0.335c0.165 0.33 0.13 0.629 0.134 0.997l0.004 0.241 0.009 0.79 0.006 0.548 0.017 1.441 0.018 1.471 0.034 2.887 0.224 0.111v0.894h0.335v0.335l0.782 0.111v0.224h1.118l0.111 -0.335h0.894l0.111 -0.335h0.671v-0.335h0.335l0.111 -0.335h0.335v-0.224l0.671 -0.111v-0.671h-0.671v-0.671h-0.447v-9.381h4.803v13.738h-4.803v-0.671h-0.335v0.335h-0.782v0.335h-1.451v0.335h-2.457l-0.111 -0.335h-1.34l-0.111 -0.335h-0.671v-0.335l-0.447 -0.111v-0.224h-0.671v-0.335h-0.335v-0.671h-0.447v-0.335h-0.335v-5.358h-0.335v-2.569l0.335 -0.111v-1.34h-0.335v-2.011h0.335z" fill="#0D5242"/>
  <path d="M277.652 28.592v3.239H276.311c-0.671 0.108 -0.906 0.149 -1.451 0.558l-0.224 1.34h3.015V37.416h-2.903v11.727h-5.137V37.416h-2.011v-3.686h2.011l-0.021 -0.753c-0.009 -1.222 0.199 -2.321 1.026 -3.268 1.792 -1.758 4.769 -1.429 7.036 -1.118" fill="#4C5C79"/>
  <path d="M321.433 30.155h5.137v3.574h2.793v3.797h-2.793q0.011 1.239 0.026 2.479 0.007 0.577 0.012 1.156 0.006 0.663 0.016 1.328l0.002 0.414c0.012 0.732 0.034 1.449 0.39 2.106 0.726 0.532 1.402 0.335 2.346 0.335v3.686c-1.306 0.652 -3.828 0.277 -5.148 -0.098 -0.924 -0.315 -1.68 -0.747 -2.223 -1.577 -0.428 -0.923 -0.572 -1.812 -0.571 -2.827v-0.235l0.002 -0.759v-0.53l0.002 -1.388 0.002 -1.419 0.006 -2.782h-2.014v-3.797h2.011z" fill="#4C5C7A"/>
  <path d="M250.848 30.155h5.137v3.574h2.793v3.797h-2.793q0.011 1.239 0.026 2.479 0.007 0.577 0.012 1.156 0.006 0.663 0.016 1.328l0.002 0.414c0.012 0.732 0.034 1.449 0.39 2.106 0.726 0.532 1.402 0.335 2.346 0.335v3.686c-1.306 0.652 -3.828 0.277 -5.148 -0.098 -0.924 -0.315 -1.68 -0.747 -2.223 -1.577 -0.428 -0.923 -0.572 -1.812 -0.571 -2.827v-0.235l0.002 -0.759v-0.53l0.002 -1.388 0.002 -1.419 0.006 -2.782h-2.011v-3.797h2.011z" fill="#4C5C7A"/>
  <path d="M61.808 43.509c0.49 0.081 0.714 0.309 0.994 0.697 0.198 0.628 0.068 1.126 -0.217 1.696 -1.301 2.822 -1.664 6.276 -1.744 9.356l-0.006 0.228a77.539 77.539 0 0 0 -0.021 1.124l-0.009 0.416 -0.005 0.369c-0.059 0.462 -0.199 0.87 -0.569 1.17 -0.498 0.134 -0.912 0.207 -1.369 -0.054 -1.847 -1.51 -2.746 -3.79 -3.575 -5.943q-0.167 -0.428 -0.338 -0.857l-0.092 0.188 -0.962 1.951 -0.358 0.726 -0.518 1.049 -0.159 0.325a9.477 9.477 0 0 1 -1.262 1.902l-0.166 0.207c-0.286 0.325 -0.54 0.513 -0.958 0.604 -0.441 -0.028 -0.441 -0.028 -0.726 -0.316 -1.648 -2.145 -1.849 -5.84 -2.332 -8.441l-0.199 -1.057 -0.193 -1.029q-0.044 -0.244 -0.092 -0.486l-0.126 -0.676 -0.071 -0.386c-0.078 -0.567 -0.13 -0.999 0.138 -1.515 0.396 -0.47 0.641 -0.62 1.257 -0.698 0.394 0.022 0.695 0.11 0.986 0.396 0.335 0.527 0.378 1.175 0.474 1.782l0.188 1.166 0.053 0.329c0.306 1.858 0.713 3.7 1.099 5.542 0.268 -0.337 0.466 -0.681 0.662 -1.063l0.19 -0.37 0.201 -0.395 0.529 -1.026a104.617 104.617 0 0 1 1.049 -1.968l0.16 -0.297c1.009 -1.836 1.009 -1.836 1.567 -2.027 0.353 -0.02 0.672 -0.012 1.004 0.111 0.393 0.415 0.534 0.768 0.662 1.321l0.053 0.222 0.108 0.466a104.617 104.617 0 0 0 0.288 1.209l0.058 0.24c0.233 0.949 0.526 1.874 0.839 2.799l0.062 -0.434 0.178 -1.247q0.09 -0.626 0.176 -1.254c0.219 -1.572 0.506 -3.05 1.141 -4.512l0.11 -0.256c0.416 -0.914 0.809 -1.327 1.841 -1.279" fill="#FDFCFD"/>
  <path d="m231.175 83.975 0.267 0.002 0.288 0.001 0.304 0.002 0.305 0.001 0.748 0.006v0.335h0.671l0.111 0.335h0.335v0.335h0.335v0.335l0.447 0.111v0.224h0.335v0.671h0.335v11.39h-1.787v-0.335h-0.782v-0.335h-0.671v-0.335h-0.447v-0.335h-0.335v-0.335h-0.335v-0.671h-0.335c-0.11 -0.453 -0.122 -0.876 -0.111 -1.34h-0.335v-1.228l0.335 -0.111 0.111 -1.004h0.335v-0.335h0.335v-0.335h0.335v-0.335h-0.671v-0.335h-1.118v-0.335h-1.451v0.335h-0.782v0.335h-0.335v0.335h-0.335v0.335h-0.447v0.671h-0.335l0.111 2.346 0.224 0.111 0.048 0.272c0.037 0.325 0.037 0.325 0.398 0.51v0.447l0.671 0.111v0.224h1.451l0.111 -0.335q0.303 -0.005 0.608 -0.006l0.341 -0.004c0.283 0.009 0.283 0.009 0.395 0.122 0.016 0.299 0.005 0.594 0 0.894h-0.671v0.335h-0.335v0.335h-0.782v0.335h-1.118v0.335h-2.569v-0.335h-1.451v-0.335h-0.671v-0.335h-0.447v-0.335h-0.335v-0.335h-0.335v-0.335h-0.335v-0.671h-0.447v-1.34h-0.335v-1.228l0.224 -0.111c0.034 -0.286 0.043 -0.567 0.052 -0.854 0.06 -0.262 0.06 -0.262 0.288 -0.409l0.215 -0.079v-0.335h0.335v-0.558l0.335 -0.111 0.111 -0.335h0.671v-0.335h0.335l0.111 -0.335h1.004v-0.335h1.451v-0.335h3.239v0.335h1.451l-0.002 -0.449 -0.005 -1.643 -0.002 -0.713 -0.002 -1.022 -0.001 -0.325v-0.299l-0.001 -0.263c0.02 -0.277 0.055 -0.308 0.332 -0.325" fill="#0D5242"/>
  <path d="M375.378 75.723h2.793v17.982h-2.679l-0.111 -1.899 -0.35 0.412c-0.903 1.028 -1.908 1.641 -3.294 1.739 -1.653 0.065 -2.963 -0.352 -4.197 -1.479 -1.381 -1.423 -1.796 -3.498 -1.794 -5.419 0.032 -2.071 0.658 -4.095 2.17 -5.561 1.247 -1.057 2.769 -1.202 4.335 -1.082 0.993 0.176 1.83 0.658 2.569 1.34l0.447 0.671zm-5.696 8.041 -0.23 0.251c-0.93 1.321 -1.026 3.051 -0.761 4.611 0.282 1.113 0.807 1.983 1.774 2.622a3.212 3.212 0 0 0 2.32 0.258c1.014 -0.331 1.575 -0.748 2.071 -1.695 0.411 -0.843 0.566 -1.63 0.558 -2.562l-0.001 -0.266c-0.026 -1.323 -0.422 -2.601 -1.375 -3.552 -1.414 -0.938 -3.179 -1.042 -4.356 0.335" fill="#595A5C"/>
  <path d="M339.94 81.032c1.468 0.961 2.295 2.411 2.658 4.111 0.426 2.31 0.202 4.778 -1.146 6.753 -0.834 1.088 -1.922 1.774 -3.268 2.031 -1.606 0.175 -2.89 -0.13 -4.202 -1.094 -0.263 -0.245 -0.263 -0.245 -0.71 -0.914l-0.111 6.143h-2.793V80.637h2.679l0.111 1.899 0.279 -0.405c1.492 -1.977 4.417 -2.287 6.501 -1.098m-6.032 3.019c-0.895 1.289 -0.971 2.966 -0.719 4.47 0.241 1.094 0.698 2.027 1.665 2.661 0.782 0.405 1.553 0.535 2.416 0.325 0.898 -0.298 1.514 -0.692 2.006 -1.508 0.737 -1.47 0.833 -3.241 0.368 -4.816 -0.399 -1.026 -0.935 -1.719 -1.911 -2.233 -1.479 -0.608 -2.857 -0.089 -3.825 1.104" fill="#595A5C"/>
  <path d="M256.88 82.648h4.803v0.335h1.004l0.111 0.335h0.671v0.335h0.335v0.335h0.447v0.335h0.335v0.671h-0.335v0.335h-1.451v-0.336l-0.447 -0.111v-0.224h-0.671v-0.335h-0.782v-0.335h-2.903v0.335h-0.335v0.335h-0.447v0.671h0.335l0.111 0.671h0.335v0.335h0.335v0.335h0.782v0.335h0.558l0.111 0.335c0.224 0.082 0.224 0.082 0.447 0.111v0.224h0.671v0.335h0.671l0.111 0.335h0.671v0.335h0.671l0.111 0.335h0.335v0.335h0.335v0.335h0.447v0.335h0.335v0.335h0.335v0.335l0.335 0.111 0.111 0.894 0.335 0.111v2.569h-0.335l0.006 0.378c0 0.414 0 0.414 -0.111 0.636h-0.335v0.671h-0.335v0.335h-0.335v0.335h-0.447v0.335h-0.335v0.335h-0.671l-0.111 0.335h-1.451v0.335h-2.903v-0.335h-1.451v-0.335h-1.004l-0.111 -0.224c-0.338 -0.073 -0.338 -0.073 -0.671 -0.111v-0.335h-0.335v-0.335h-0.447l-0.006 -0.774 -0.005 -0.436c0.006 -0.353 0.006 -0.353 0.118 -0.465 0.729 -0.027 0.729 -0.027 1.004 0.111v0.558l0.671 0.111v0.224l0.447 0.111v0.224h0.671v0.335h1.451l0.111 0.224 2.122 0.111 0.111 -0.335h0.335v-0.335h0.335v-1.004h-0.335v-0.335h-0.447v-0.335h-0.671v-0.335h-0.447v-0.335h-0.671v-0.335h-0.671l-0.111 -0.335h-0.671v-0.335l-0.447 -0.111v-0.224h-0.671v-0.335h-0.671l-0.111 -0.335h-0.335v-0.335h-0.335v-0.335h-0.335v-0.335h-0.447v-0.335h-0.335v-0.671h-0.335v-1.004l-0.447 -0.111v-1.787l0.447 -0.111v-1.34h0.335v-0.671h0.335v-0.335h0.447v-0.335h0.335v-0.335h0.335v-0.335l0.335 -0.111 0.111 -0.224h1.004z" fill="#0D5242"/>
  <path d="M292.73 59.195h2.903v0.335h0.782v0.335h0.335v0.335h0.447v-0.335h0.335v-0.335h0.335v-0.335h2.569v0.335h0.782v0.335h0.671v-0.335h0.447v-0.335h2.793l0.111 0.335h0.671v0.335h0.447v0.335h0.335v-0.335h0.335l0.111 -0.335h2.793v0.335h0.782v0.335h0.335v0.335h0.335l0.111 0.224 0.335 0.111v0.335h0.335v-1.675h0.335v-0.335h1.118v0.335h0.447v-0.335h1.787v0.335h0.671v1.004h-0.335v0.335h-1.118v0.335h-0.671v0.558l-0.447 0.111v4.691l0.447 0.111v2.234h-0.447v0.671h-1.787v-5.025h-0.335v-0.671h-0.782v0.335h-0.335l-0.111 0.335h-0.671v0.335h-0.335v0.335h-0.335v0.335h-0.335v0.558l-0.447 0.111v0.335h-1.787v-0.335h-0.335v-0.671h0.335v-1.004h0.335v-1.34h-0.335v-0.671h-0.335v-0.335l-0.447 -0.111v-0.224h-0.335v-0.335h-0.558l-0.111 -0.335h-0.782v-0.335h-0.335l-0.111 0.558 -0.335 0.111v4.021l0.447 0.111v3.574h-0.447v0.335h-1.004v-0.335h-0.447V62.536h-0.335v-0.671h-0.335v-0.335h-0.335l-0.111 -0.224a11.077 11.077 0 0 0 -0.671 -0.224v-0.224h-1.118l-0.111 0.335h-0.224l-0.111 0.335h-0.224v1.004h2.457l0.006 1.11 0.004 0.351 0.001 0.274 0.002 0.282c-0.016 0.225 -0.016 0.225 -0.127 0.338 -0.299 0.016 -0.594 0.005 -0.894 0v-0.335h-1.451v-0.332h-1.118l-0.111 0.335h-0.671v0.335h-1.004l-0.111 -0.335h-0.671v-2.011h1.787v-0.335l-0.335 -0.111v-0.558h-0.335v-0.335h-0.671l-0.111 -0.335 -0.193 0.002 -0.862 0.006 -0.304 0.002 -0.288 0.001 -0.267 0.002c-0.21 -0.016 -0.21 -0.016 -0.322 -0.128 -0.016 -0.521 -0.005 -1.042 0 -1.564m15.413 2.346v0.671h0.335v0.782l0.782 -0.111v-0.335h0.671c0.113 -0.34 0.113 -0.34 0 -0.671l-0.279 -0.057 -0.279 -0.057 -0.111 -0.224z" fill="#000000"/>
  <path d="M410.895 28.592h5.249v20.662h-5.137z" fill="#4D5C7A"/>
  <path d="M463.275 33.506c0.111 0.111 0.111 0.111 0.124 0.524l-0.002 0.551v0.293q0 0.464 -0.004 0.928l-0.001 0.628 -0.006 1.542 -0.662 -0.084c-1.18 -0.138 -2.305 -0.049 -3.295 0.663 -0.748 0.821 -0.859 1.791 -0.868 2.865l-0.004 0.258 -0.009 0.838 -0.006 0.582 -0.017 1.53 -0.021 1.838 -0.032 2.789h-5.137V33.618h5.025l0.111 2.457 0.236 -0.51c0.441 -0.876 0.991 -1.598 1.946 -1.937 0.911 -0.272 1.68 -0.295 2.619 -0.122" fill="#4D5D79"/>
  <path d="M204.163 33.506c0.111 0.111 0.111 0.111 0.124 0.524l-0.002 0.551v0.293q0 0.464 -0.004 0.928l-0.001 0.628 -0.006 1.542 -0.662 -0.084c-1.18 -0.138 -2.305 -0.049 -3.295 0.663 -0.747 0.821 -0.859 1.791 -0.868 2.865l-0.004 0.258 -0.009 0.838 -0.006 0.582 -0.017 1.53 -0.021 1.838 -0.032 2.789h-5.137V33.618h5.025l0.111 2.457 0.236 -0.51c0.441 -0.876 0.991 -1.598 1.946 -1.937 0.911 -0.272 1.68 -0.295 2.619 -0.122" fill="#4D5D79"/>
  <path d="m157.073 33.374 0.24 -0.005c0.276 0.025 0.276 0.025 1.058 0.249v4.356l-0.894 -0.111c-1.125 -0.084 -2.039 0.052 -3.009 0.649 -1.093 1.158 -0.937 2.837 -0.946 4.33l-0.006 0.558 -0.015 1.454 -0.02 1.751 -0.026 2.65h-5.137V33.618h5.025l0.111 2.569 0.3 -0.629c0.559 -1.099 1.127 -1.586 2.27 -2.053a4.431 4.431 0 0 1 1.047 -0.133" fill="#4C5C7A"/>
  <path d="M192.883 77.958h1.787v17.423h-0.335v0.671h-0.447v0.335h-0.335v0.335h-0.335v0.335h-0.335v0.335h-0.782v0.335h-0.782v0.335h-1.34l-0.111 -0.335h-0.335V81.084l0.335 -0.111v-0.558l0.447 -0.111v-0.671h0.335v-0.335h0.335v-0.335h0.447v-0.335h0.671v-0.335h0.782z" fill="#0D5242"/>
  <path d="M209.301 77.958h1.451v0.335h0.335V94.377h-0.335v1.34h-0.335v0.671h-0.335v0.335h-0.447v0.335h-0.335v0.335h-0.782v0.335h-1.004v0.335h-1.451V80.637h0.335v-0.671h0.335v-0.558l0.447 -0.111v-0.335h0.671v-0.335h0.335l0.111 -0.335h1.004z" fill="#0B5040"/>
  <path d="M146.756 81.196c0.619 0.505 1.054 1.041 1.34 1.787l0.116 0.288c0.133 0.469 0.137 0.887 0.134 1.371v0.294l-0.004 0.958 -0.001 0.666 -0.006 1.748 -0.005 1.785 -0.011 3.5h-2.679l-0.111 -1.787 -0.558 0.671c-1.173 1.014 -2.517 1.418 -4.054 1.316 -1.105 -0.134 -2.081 -0.508 -2.871 -1.316 -0.521 -0.702 -0.799 -1.366 -0.894 -2.234l-0.042 -0.369c0.126 -1.237 0.534 -2.172 1.493 -2.981 1.141 -0.774 2.544 -0.939 3.888 -1.026l0.382 -0.027a28.308 28.308 0 0 1 2.767 -0.064q-0.043 -0.427 -0.091 -0.852l-0.023 -0.241c-0.074 -0.646 -0.223 -1.154 -0.71 -1.616 -0.773 -0.516 -1.632 -0.609 -2.54 -0.46a3.323 3.323 0 0 0 -1.439 0.711l-0.558 1.118h-2.569c0.116 -1.158 0.321 -2.071 1.186 -2.89 2.171 -1.69 5.566 -1.954 7.86 -0.35m-3.259 6.561 -0.432 0.021c-1.004 0.062 -1.856 0.203 -2.674 0.816 -0.341 0.469 -0.494 0.879 -0.409 1.462 0.176 0.631 0.416 0.953 0.966 1.302 0.974 0.401 1.99 0.314 2.95 -0.075 0.763 -0.393 1.27 -0.939 1.628 -1.712 0.108 -0.427 0.123 -0.825 0.119 -1.263l-0.004 -0.362 -0.005 -0.272c-0.716 -0.006 -1.428 0.042 -2.143 0.084" fill="#595A5D"/>
  <path d="M161.723 83.653h5.137v0.335h1.451v0.335h0.671c0.126 0.753 0.126 0.753 0 1.004h-1.34v-0.335h-1.118v-0.335h-2.234v0.335h-0.782v0.335h-0.335v1.34l0.335 0.111v0.558h0.671l0.111 0.335h0.335v0.335h0.335l0.111 0.224q0.332 0.122 0.671 0.224v0.224h0.335v0.335h0.671l0.111 0.335h0.335v0.335h0.671l0.111 0.335h0.335v0.335h0.335v0.335l0.447 0.111v0.224h0.335v0.335h0.335v0.335h0.335v0.671l0.447 0.224v2.679l-0.447 0.111v0.671h-0.335v0.335h-0.335v0.335h-0.335v0.335h-0.447v0.335h-0.671v0.335h-1.118v0.335h-3.686v-0.335h-1.451v-0.335h-1.118v-0.335h-0.671v-0.335h-0.447c-0.041 -0.603 -0.041 -0.603 0.126 -0.879 0.297 -0.177 0.542 -0.148 0.879 -0.126l0.111 0.335h0.671l0.111 0.335h0.671v0.335h1.787l0.111 0.335h0.335l0.111 -0.335h1.004l0.111 -0.335h0.224l0.111 -0.335h0.224v-1.34h-0.335v-0.335h-0.335v-0.335h-0.335v-0.335h-0.782v-0.335h-0.335v-0.335h-0.447v-0.335h-0.671v-0.335h-0.335v-0.335h-0.782v-0.335h-0.335v-0.335h-0.447v-0.335h-0.671v-0.335h-0.335v-0.335h-0.335l-0.111 -0.671h-0.335v-0.671h-0.335v-2.679h0.335v-0.894l0.335 -0.111 0.111 -0.335h0.335v-0.335h0.335v-0.335l0.327 -0.042 0.35 -0.07 0.111 -0.224h0.671z" fill="#0D5242"/>
  <path d="M63.438 60.423c0.447 0.167 0.826 0.416 1.228 0.671a55.385 55.385 0 0 0 0.666 0.373c0.585 0.324 1.164 0.655 1.735 1.003 0.311 0.19 0.622 0.364 0.95 0.523 0.363 0.176 0.713 0.369 1.061 0.572l0.289 0.169 0.212 0.153v0.224c-0.203 0.153 -0.203 0.153 -0.492 0.329l-0.325 0.201 -0.356 0.217 -0.743 0.458 -0.386 0.236q-0.697 0.43 -1.39 0.864 -0.329 0.207 -0.658 0.411a166.156 166.156 0 0 0 -1.751 1.106l-0.368 0.235 -0.697 0.447 -0.318 0.202 -0.278 0.178c-0.622 0.311 -1.088 0.25 -1.738 0.046l-0.23 -0.07 -0.747 -0.235 -0.523 -0.162 -1.095 -0.343 -1.397 -0.437 -1.081 -0.337 -0.514 -0.16c-2.572 -0.802 -2.572 -0.802 -3.006 -1.399 -0.171 -0.396 -0.118 -0.544 0.042 -0.95 0.521 -0.822 1.692 -1.129 2.555 -1.465l0.364 -0.144c1.463 -0.576 2.933 -1.134 4.403 -1.692l1.25 -0.476 0.769 -0.292 0.346 -0.132 0.303 -0.116c0.655 -0.257 1.206 -0.288 1.916 -0.207" fill="#46A5D4"/>
  <path d="m360.859 80.861 0.271 0.119c1.391 0.693 2.374 1.887 2.891 3.337 0.628 2.095 0.684 4.614 -0.37 6.596 -0.906 1.492 -2.038 2.454 -3.735 2.932 -1.943 0.412 -3.806 0.156 -5.507 -0.892 -1.414 -1.008 -2.156 -2.549 -2.449 -4.234 -0.304 -2.274 0.059 -4.401 1.354 -6.305 1.682 -2.155 5.143 -2.63 7.546 -1.552m-5.361 3.015c-0.932 1.409 -1.008 3.306 -0.709 4.932 0.26 1.025 0.709 1.825 1.589 2.432 0.855 0.475 1.743 0.546 2.694 0.342 0.921 -0.32 1.52 -0.794 1.948 -1.669 0.631 -1.462 0.794 -3.248 0.274 -4.782l-0.1 -0.251 -0.09 -0.24c-0.367 -0.85 -0.991 -1.481 -1.85 -1.825 -1.473 -0.458 -2.742 -0.101 -3.755 1.061" fill="#595A5D"/>
  <path d="M70.167 46.036c1.29 1.319 1.458 2.852 1.458 4.611 -0.012 0.927 -0.094 1.665 -0.481 2.516l-0.094 0.213c-0.596 1.365 -1.408 2.75 -2.842 3.356 -1.072 0.368 -2.167 0.352 -3.209 -0.108 -1.174 -0.683 -1.856 -1.691 -2.242 -2.966 -0.393 -1.634 -0.198 -3.433 0.455 -4.964l0.086 -0.209c0.558 -1.311 1.401 -2.516 2.716 -3.141 1.473 -0.553 2.9 -0.15 4.15 0.69" fill="#FDFCFD"/>
  <path d="m238.882 83.64 0.267 0.002 0.288 0.001 0.304 0.002 0.305 0.001 0.748 0.006v0.335h0.671l0.111 0.224q0.331 0.122 0.671 0.224v0.224l0.335 0.111v0.558l0.447 0.111v0.224l0.335 0.111v0.894h0.335v-2.011h0.335l0.111 -0.335h0.335v-0.335h0.335l0.111 -0.335h2.011l0.111 0.335h0.671v0.335h0.335l0.111 0.671h0.335v1.675h-0.335l-0.111 0.671h-0.335v0.335h-0.335v0.335h-2.569v-0.335h-0.671l-0.111 -0.671h-0.335v10.723h-0.335v0.335h-1.451v-0.335h-1.118v-0.335h-0.335v-0.335h-0.447v-0.335h-0.335v-0.335h-0.335v-0.335h-0.335v-0.671l-0.447 -0.111 -0.006 -4.495 -0.002 -2.086 -0.002 -2.012 -0.001 -0.769 -0.001 -1.073 -0.001 -0.325v-0.551c0.02 -0.273 0.06 -0.3 0.332 -0.318" fill="#0B5140"/>
  <path d="m77.272 45.198 0.239 0.001c1.031 0.022 1.744 0.386 2.517 1.067 1.183 1.335 1.477 2.923 1.388 4.662 -0.169 2.011 -0.97 3.827 -2.437 5.228 -0.972 0.795 -2.03 0.949 -3.254 0.839 -0.874 -0.14 -1.737 -0.706 -2.314 -1.366 -1.035 -1.502 -1.252 -3.408 -0.978 -5.182 0.329 -1.748 1.201 -3.518 2.63 -4.618 0.699 -0.463 1.365 -0.64 2.206 -0.633" fill="#FDFCFD"/>
  <path d="M380.739 80.637h2.793l0.004 0.802q0.006 1.317 0.018 2.635l0.01 1.596q0.002 0.772 0.011 1.542l0.002 0.586c-0.032 1.636 -0.032 1.636 0.668 3.072 0.682 0.624 1.476 0.65 2.354 0.634 0.758 -0.066 1.371 -0.282 1.898 -0.844 0.876 -1.159 0.752 -2.622 0.768 -4.004l0.006 -0.522 0.017 -1.366 0.018 -1.397 0.034 -2.735h2.679v13.067h-2.569l-0.111 -1.899 -0.629 0.95c-0.878 0.926 -2.001 1.201 -3.235 1.281 -1.311 0.012 -2.5 -0.382 -3.509 -1.225 -1.281 -1.388 -1.292 -3.038 -1.273 -4.812l0.002 -0.64q0.002 -0.834 0.011 -1.669 0.006 -0.855 0.009 -1.708 0.007 -1.671 0.021 -3.344" fill="#595A5C"/>
  <path d="M331.374 33.618h5.137v15.524h-5.137z" fill="#4D5D79"/>
  <path d="M279.552 33.618h5.137v15.524h-5.137z" fill="#4D5D79"/>
  <path d="M260.899 33.618h5.137v15.524h-5.137z" fill="#4C5C7A"/>
  <path d="M404.194 81.457c0.789 0.608 1.369 1.593 1.676 2.532l0.111 1.118h-2.679l-0.287 -0.629c-0.402 -0.799 -0.806 -1.268 -1.647 -1.593 -0.903 -0.257 -1.798 -0.207 -2.645 0.21 -0.901 0.565 -1.371 1.505 -1.618 2.516 -0.231 1.583 -0.235 3.327 0.704 4.688 0.641 0.761 1.316 1.108 2.3 1.196 0.855 0.032 1.595 -0.126 2.278 -0.66 0.513 -0.478 0.747 -1.04 0.914 -1.71h2.679c-0.134 1.349 -0.518 2.463 -1.547 3.387 -1.083 0.842 -2.324 1.359 -3.702 1.415l-0.284 0.018a6.191 6.191 0 0 1 -4.295 -1.47l-0.198 -0.154c-1.087 -0.942 -1.67 -2.59 -1.812 -3.978 -0.151 -2.199 0.08 -4.367 1.505 -6.155 2.245 -2.398 5.903 -2.501 8.547 -0.734" fill="#595A5D"/>
  <path d="m202.152 83.988 0.774 -0.006 0.436 -0.005c0.353 0.011 0.353 0.011 0.466 0.123q0.006 0.281 0 0.558h-0.335v0.335h-0.447v0.335h-0.335v0.335h-0.335v0.335l-0.335 0.111 -0.111 0.224h-0.335v0.335h-0.335v0.335h-0.335l-0.111 0.335h-0.671v0.335h-0.335v0.335h-0.335v0.335h-0.447v0.335h-0.335v0.335h0.335v0.335h0.782v0.335h0.335v0.335h0.335v0.335l0.447 0.111v0.558h0.335v0.335l0.335 0.111v0.558h0.335l0.111 0.671h0.335v0.335l0.335 0.111v0.558h0.335v0.335l0.447 0.224v0.447l0.335 0.111v0.558h0.335l0.111 0.335 0.224 0.111v0.558l0.447 0.111v0.335h0.335v0.894h-5.808v-0.671h-0.447v-0.335h-0.335v-0.671h-0.335v-0.671h-0.335v-0.335l-0.447 -0.111v-0.558h-0.335v-0.671h-0.335v-0.335h-0.335l-0.111 -0.671h-0.335v-0.671h-0.335v-0.335h-0.335v-0.671h-0.447l-0.014 -0.544 -0.007 -0.306c0.018 -0.251 0.018 -0.251 0.241 -0.475 0.293 -0.014 0.293 -0.014 0.558 0v-0.335h0.335v-0.335h0.335l0.111 -0.335h0.335v-0.335h0.335v-0.335h0.335l0.111 -0.335h0.335v-0.335h0.335l0.111 -0.335h0.224l0.111 -0.335h0.671v-0.33h0.335v-0.335h0.335v-0.335h0.335l0.111 -0.335h0.335v-0.335h0.335v-0.335h0.335l0.111 -0.335h0.335z" fill="#0D5242"/>
  <path d="M218.459 83.988h1.451v1.004h-0.335l-0.111 0.335h-0.335v0.335h-0.335v0.335h-0.671v0.335h-0.447v0.335h-0.335v0.335h-0.335v0.335h-0.335v0.335h-0.447v0.335h-0.335v0.335h-0.335l-0.111 0.335h-0.335v0.335l0.447 0.111v0.224h0.558l0.111 0.335c0.224 0.082 0.224 0.082 0.447 0.111v0.224l0.335 0.111v0.558h0.335v0.335l0.335 0.111v0.558l0.447 0.111v0.558h0.335l0.111 0.335 0.224 0.111v0.558l0.447 0.111v0.558l0.335 0.111v0.224l0.335 0.111v0.558h0.335l0.111 0.335 0.335 0.224v0.447l0.335 0.111v0.558h0.335v1.004h-5.472v-0.335h-0.335v-0.671h-0.335v-0.335l-0.447 -0.111v-0.558h-0.335v-0.671h-0.335v-0.335h-0.335l-0.111 -0.671h-0.335v-0.335h-0.335v-0.671h-0.335v-0.671h-0.447v-0.335h-0.335v-0.671h-0.335v-1.675h0.335v-0.335h0.335l0.111 -0.335h0.335l0.111 -0.335h0.224l0.111 -0.335h0.558l0.111 -0.335h0.335v-0.335h0.335v-0.335h0.335v-0.335h0.447v-0.335h0.335v-0.335h0.335v-0.335h0.447v-0.335h0.335l0.111 -0.335h0.558v-0.335l0.335 -0.111 0.111 -0.224h0.335v-0.335h0.335z" fill="#0D5141"/>
  <path d="M408.66 77.511h2.679v3.127h2.569l0.006 1.055 0.004 0.332 0.001 0.261 0.002 0.267c-0.012 0.208 -0.012 0.208 -0.124 0.32a8.615 8.615 0 0 1 -0.548 0.011l-0.335 -0.001 -0.352 -0.002 -0.353 -0.001 -0.868 -0.006q0.01 1.444 0.026 2.886l0.012 1.34q0.005 0.647 0.014 1.295l0.004 0.492 0.007 0.693 0.004 0.398c0.064 0.548 0.198 1.017 0.645 1.37 0.615 0.191 1.215 0.204 1.857 0.236v2.122a5.391 5.391 0 0 1 -3.825 -0.188c-0.626 -0.346 -1.044 -0.823 -1.273 -1.503 -0.241 -0.855 -0.192 -1.739 -0.183 -2.62l0.001 -0.566 0.007 -1.479 0.006 -1.515q0.006 -1.482 0.017 -2.963h-1.899v-2.234h1.899z" fill="#595B5C"/>
  <path d="M351.477 80.527v2.569l-0.935 -0.034c-1.003 -0.015 -1.718 0.144 -2.464 0.852a3.815 3.815 0 0 0 -0.556 2.082l-0.004 0.254 -0.004 0.822 -0.006 0.574 -0.01 1.503 -0.018 2.414 -0.005 0.843 -0.004 0.513v0.238c-0.005 0.537 -0.005 0.537 -0.129 0.661h-2.679V80.637h2.679l0.111 1.675 0.273 -0.46c0.458 -0.686 1.018 -1.055 1.772 -1.369 0.597 -0.101 1.417 -0.236 1.977 0.042" fill="#5A5A5C"/>
  <path d="M264.837 27.326c0.601 0.459 1.019 1.014 1.131 1.774 0.02 0.798 -0.111 1.418 -0.599 2.062 -0.699 0.612 -1.345 0.834 -2.265 0.818 -0.656 -0.08 -1.204 -0.342 -1.637 -0.844 -0.494 -0.722 -0.677 -1.333 -0.567 -2.208 0.292 -0.849 0.684 -1.316 1.458 -1.759 0.79 -0.313 1.745 -0.273 2.478 0.159" fill="#4D5D79"/>
  <path d="M335.276 27.245c0.569 0.367 0.994 0.929 1.196 1.579 0.15 0.805 -0.007 1.466 -0.46 2.134 -0.508 0.633 -0.977 0.926 -1.785 1.017 -0.742 0.03 -1.394 -0.054 -1.958 -0.567 -0.656 -0.716 -0.838 -1.286 -0.818 -2.256 0.081 -0.789 0.457 -1.266 1.054 -1.761 0.806 -0.527 1.909 -0.569 2.772 -0.144" fill="#4D5D79"/>
  <path d="M283.279 27.203c0.634 0.373 1.071 0.914 1.298 1.612 0.085 0.716 0.081 1.404 -0.289 2.038 -0.473 0.591 -1.145 1.03 -1.9 1.126 -0.902 0.014 -1.456 -0.169 -2.144 -0.75 -0.532 -0.639 -0.709 -1.258 -0.69 -2.08 0.121 -0.786 0.492 -1.306 1.118 -1.787a2.88 2.88 0 0 1 2.61 -0.16" fill="#4D5D79"/>
  <path d="M77.745 47.816c0.513 0.236 0.697 0.807 0.894 1.302 0.356 1.28 0.108 2.612 -0.495 3.767 -0.357 0.586 -0.789 1.089 -1.415 1.393 -0.412 0.028 -0.412 0.028 -0.782 -0.111 -0.645 -0.571 -0.842 -1.29 -0.929 -2.13 -0.054 -1.482 0.393 -2.682 1.376 -3.788 0.398 -0.405 0.794 -0.535 1.351 -0.432" fill="#8A4E9F"/>
  <path d="M67.906 47.802c0.577 0.484 0.95 1.034 1.03 1.797 0.081 1.548 -0.087 2.908 -1.141 4.123 -0.364 0.31 -0.713 0.434 -1.186 0.517 -0.416 -0.078 -0.575 -0.192 -0.816 -0.539 -0.601 -1.015 -0.575 -2.178 -0.405 -3.321 0.25 -0.972 0.814 -1.873 1.626 -2.464 0.34 -0.17 0.514 -0.176 0.894 -0.111" fill="#8A4D9F"/>
  <path d="M226.612 83.653h2.122v0.335h0.671v0.335l0.447 0.111v0.894h0.335v1.228l-0.335 0.111v0.671h-0.447v0.335h-0.335v0.335h-2.569v-0.335h-0.671v-0.335h-0.335c-0.14 -0.279 -0.124 -0.47 -0.122 -0.783l0.001 -0.334 0.002 -0.35 0.001 -0.352 0.006 -0.863h0.447v-0.335h0.335v-0.335h0.335z" fill="#0C5242"/>
  <path d="m240.649 63.417 0.258 0.021a1.649 1.649 0 0 1 -0.447 0.894h-0.224l-0.063 0.293c-0.187 0.441 -0.398 0.597 -0.763 0.887 -0.236 0.21 -0.299 0.423 -0.402 0.719a32 32 0 0 1 -0.406 0.476c-0.288 0.367 -0.492 0.788 -0.71 1.199 -0.188 0.342 -0.188 0.342 -0.335 0.558h-0.224l-0.091 0.279a29.539 29.539 0 0 1 -0.364 1.014l-0.24 0.644 -0.148 0.395 -0.14 0.377c-0.133 0.308 -0.133 0.308 -0.356 0.53 -0.044 0.257 -0.044 0.257 -0.057 0.544a2.289 2.289 0 0 1 -0.279 1.019c-0.05 0.262 -0.05 0.262 -0.07 0.53l-0.026 0.271 -0.016 0.203 -0.558 -0.111a13.539 13.539 0 0 1 0.224 -3.015l0.111 -0.111a17.231 17.231 0 0 0 0.111 -0.614c0.098 -0.602 0.098 -0.602 0.224 -0.726l0.049 -0.384c0.063 -0.399 0.063 -0.399 0.287 -0.622a18.462 18.462 0 0 0 0.224 -0.558 33.231 33.231 0 0 1 0.327 -0.698l0.171 -0.358c0.172 -0.284 0.172 -0.284 0.506 -0.396l0.034 -0.245c0.086 -0.353 0.192 -0.582 0.412 -0.873l0.265 -0.097c0.347 -0.148 0.485 -0.314 0.72 -0.608a3.815 3.815 0 0 1 1.164 -0.962c0.206 -0.113 0.206 -0.113 0.372 -0.3 0.16 -0.153 0.16 -0.153 0.46 -0.174" fill="#135A37"/>
  <path d="M68.576 60.423h6.702a4.431 4.431 0 0 1 -0.879 0.687l-0.33 0.206 -0.353 0.218 -0.727 0.45 -0.368 0.228a83.693 83.693 0 0 0 -0.993 0.631l-0.293 0.188 -0.544 0.352 -0.246 0.158 -0.212 0.138c-0.192 0.095 -0.192 0.095 -0.527 0.095l-0.526 -1.27 -0.178 -0.432 -0.256 -0.62 -0.156 -0.378c-0.112 -0.315 -0.112 -0.315 -0.112 -0.65" fill="#46A5D4"/>
  <path d="M223.373 68.688c1.596 -0.054 1.596 -0.054 2.234 0.224l0.111 0.335 0.558 0.111v0.224h0.287c0.494 0.144 0.662 0.382 0.978 0.774a6.154 6.154 0 0 0 0.516 0.553c0.231 0.238 0.231 0.238 0.231 0.462l0.335 0.111v0.224l0.208 0.028c0.239 0.084 0.239 0.084 0.377 0.287l0.107 0.245c0.123 0.302 0.123 0.302 0.314 0.558 0.016 0.299 0.005 0.594 0 0.894l0.335 0.111v0.671l-0.335 -0.111v-0.335l-0.198 -0.087a2.831 2.831 0 0 1 -0.668 -0.527l-0.208 -0.206c-0.155 -0.186 -0.155 -0.186 -0.155 -0.409h-0.224c-0.158 -0.16 -0.158 -0.16 -0.342 -0.384 -0.919 -1.095 -0.919 -1.095 -2.108 -1.855a6.769 6.769 0 0 1 -0.789 -0.449l-0.258 -0.164 -0.186 -0.164v-0.335l-0.245 -0.021c-0.411 -0.119 -0.594 -0.331 -0.873 -0.649z" fill="#165D38"/>
  <path d="M240.573 64.108v0.335h-0.224l-0.021 0.245c-0.119 0.412 -0.345 0.575 -0.649 0.873a7.385 7.385 0 0 0 -0.236 0.418c-0.209 0.364 -0.209 0.364 -0.544 0.475l-0.036 0.245c-0.172 0.721 -0.69 1.451 -1.193 1.989h-0.224l0.034 0.398c0.002 0.489 -0.154 0.714 -0.454 1.083 -0.21 0.297 -0.273 0.626 -0.362 0.976l-0.224 0.224 -0.057 0.39c-0.057 0.39 -0.057 0.39 -0.279 0.614 -0.07 0.215 -0.07 0.215 -0.119 0.454 -0.095 0.428 -0.095 0.428 -0.217 0.551a9.846 9.846 0 0 0 -0.063 0.51l-0.028 0.279 -0.02 0.217 -0.558 0.111 0.111 -0.335 0.335 0.111 -0.007 -0.204 -0.006 -0.271 -0.007 -0.267c0.023 -0.29 0.114 -0.453 0.245 -0.71 0.036 -0.282 0.049 -0.56 0.063 -0.844 0.058 -0.325 0.181 -0.463 0.384 -0.719 0.272 -0.571 0.521 -1.161 0.684 -1.772 0.103 -0.368 0.252 -0.683 0.432 -1.019h0.224l0.092 -0.245a6.769 6.769 0 0 1 1.108 -1.801c0.262 -0.277 0.262 -0.277 0.356 -0.586 0.119 -0.273 0.119 -0.273 0.447 -0.544 0.361 -0.3 0.481 -0.538 0.677 -0.956z" fill="#499843"/>
  <path d="m160.494 95.714 0.111 0.335h0.671l0.111 0.335h0.671v0.335l0.224 0.111c-0.124 0.277 -0.124 0.277 -0.335 0.558 -0.326 0.055 -0.326 0.055 -0.69 0.034l-0.368 -0.016 -0.282 -0.017v-0.335h-0.671v-0.335h-0.447c-0.041 -0.603 -0.041 -0.603 0.126 -0.879 0.297 -0.177 0.542 -0.148 0.879 -0.126" fill="#376C5B"/>
  <path d="M223.373 68.688c1.596 -0.054 1.596 -0.054 2.234 0.224l0.111 0.335 0.558 0.111v0.224h0.287c0.569 0.165 0.802 0.556 1.166 1.004q0.274 0.287 0.558 0.558l-0.111 0.224 -0.155 -0.167 -0.208 -0.217 -0.204 -0.215c-0.225 -0.192 -0.373 -0.249 -0.661 -0.294v-0.335l-0.217 -0.034 -0.23 -0.075 -0.111 -0.335h-0.335v-0.224l-0.265 -0.048c-0.294 -0.064 -0.294 -0.064 -0.518 -0.176a7.385 7.385 0 0 0 -0.46 -0.006l-0.433 0.006 0.279 0.154 0.279 0.182v0.224h0.224l0.111 0.224a7.385 7.385 0 0 0 0.468 0.133c0.51 0.158 0.746 0.375 1.054 0.802 0.18 0.21 0.354 0.286 0.602 0.404 0.219 0.32 0.386 0.658 0.558 1.004a13.539 13.539 0 0 1 -1.166 -1.074c-0.325 -0.33 -0.634 -0.518 -1.054 -0.709a7.385 7.385 0 0 1 -0.798 -0.457l-0.258 -0.165 -0.188 -0.162v-0.335l-0.245 -0.021c-0.411 -0.119 -0.594 -0.331 -0.873 -0.649z" fill="#34803E"/>
  <path d="M166.524 83.988h1.787v0.335h0.671c0.126 0.753 0.126 0.753 0 1.004h-1.34v-0.335h-1.118z" fill="#3C6D5D"/>
  <path d="M236.775 69.692c0 0.409 -0.118 0.687 -0.265 1.068l-0.149 0.39c-0.144 0.329 -0.144 0.329 -0.367 0.553 -0.044 0.257 -0.044 0.257 -0.057 0.544a2.289 2.289 0 0 1 -0.279 1.019c-0.05 0.262 -0.05 0.262 -0.07 0.53l-0.026 0.271 -0.016 0.203 -0.558 -0.111c-0.011 -0.83 0 -1.634 0.111 -2.457h0.111l0.111 1.34 0.105 -0.327c0.121 -0.343 0.121 -0.343 0.231 -0.455a7.385 7.385 0 0 0 0.063 -0.454l0.049 -0.441h0.335v-0.671l0.335 -0.111 0.042 -0.321c0.07 -0.35 0.07 -0.35 0.294 -0.572" fill="#2C773D"/>
  <path d="M237.222 69.134h0.224a1.686 1.686 0 0 1 -0.327 0.879c-0.246 0.373 -0.338 0.703 -0.454 1.131l-0.224 0.224 -0.057 0.39c-0.057 0.39 -0.057 0.39 -0.279 0.614 -0.07 0.215 -0.07 0.215 -0.119 0.454 -0.095 0.428 -0.095 0.428 -0.217 0.551a9.846 9.846 0 0 0 -0.063 0.51l-0.028 0.279 -0.02 0.217 -0.558 0.111 0.111 -0.335 0.335 0.111 -0.007 -0.204 -0.006 -0.271 -0.007 -0.267c0.023 -0.29 0.114 -0.453 0.245 -0.71 0.036 -0.282 0.049 -0.56 0.063 -0.844 0.058 -0.325 0.182 -0.463 0.384 -0.719a14.769 14.769 0 0 0 0.279 -0.656c0.505 -1.244 0.505 -1.244 0.726 -1.466" fill="#51A144"/>
  <path d="M223.373 68.688c1.596 -0.054 1.596 -0.054 2.234 0.224l0.111 0.335 0.558 0.111v0.224h0.287c0.569 0.165 0.802 0.556 1.166 1.004q0.274 0.287 0.558 0.558l-0.111 0.224 -0.155 -0.167 -0.208 -0.217 -0.204 -0.215c-0.225 -0.192 -0.373 -0.249 -0.661 -0.294v-0.335l-0.217 -0.034 -0.23 -0.075 -0.111 -0.335h-0.335v-0.224l-0.558 -0.111v-0.335l-0.335 0.014c-0.474 0.002 -0.886 -0.11 -1.34 -0.236v0.224l0.335 0.111 0.111 0.335c-0.38 -0.113 -0.53 -0.185 -0.761 -0.517z" fill="#4E9D44"/>
  <path d="m241.467 62.992 -0.111 0.447h-0.224l-0.034 0.21c-0.078 0.236 -0.078 0.236 -0.412 0.459l0.224 -0.671c-0.508 0.139 -0.754 0.297 -1.118 0.671l-0.369 0.196c-0.441 0.236 -0.71 0.567 -1.017 0.954 -0.177 0.191 -0.177 0.191 -0.512 0.303 0.041 -0.302 0.079 -0.512 0.258 -0.761 0.188 -0.133 0.188 -0.133 0.635 -0.133l0.089 -0.202c0.33 -0.601 0.967 -0.991 1.586 -1.249h0.224v-0.224c0.351 -0.117 0.446 -0.105 0.782 0" fill="#3E8B40"/>
  <path d="m237.67 65.56 0.224 0.111 -0.154 0.245c-0.187 0.305 -0.187 0.305 -0.3 0.62 -0.106 0.251 -0.106 0.251 -0.329 0.363 -0.268 0.39 -0.416 0.778 -0.558 1.228l-0.111 0.111a27.077 27.077 0 0 0 -0.111 0.782l-0.335 0.111 -0.042 0.308c-0.07 0.363 -0.07 0.363 -0.182 0.57 -0.137 0.295 -0.154 0.544 -0.174 0.868 -0.038 0.578 -0.038 0.578 -0.16 0.825h-0.224a11.077 11.077 0 0 1 0 -0.558l0.111 -0.111a17.231 17.231 0 0 0 0.111 -0.614c0.098 -0.602 0.098 -0.602 0.224 -0.726l0.049 -0.384c0.062 -0.398 0.062 -0.398 0.286 -0.62a18.462 18.462 0 0 0 0.224 -0.558 33.231 33.231 0 0 1 0.327 -0.698l0.171 -0.358c0.172 -0.284 0.172 -0.284 0.506 -0.396l0.034 -0.245c0.084 -0.341 0.22 -0.581 0.412 -0.873" fill="#36823F"/>
  <path d="m228.287 71.367 0.335 0.111v0.224l0.208 0.028c0.239 0.084 0.239 0.084 0.377 0.287l0.107 0.245c0.123 0.302 0.123 0.302 0.314 0.558 0.016 0.299 0.005 0.594 0 0.894l0.335 0.111v0.671l-0.335 -0.111v-0.335l-0.198 -0.087a2.831 2.831 0 0 1 -0.668 -0.527l-0.208 -0.206c-0.155 -0.186 -0.155 -0.186 -0.155 -0.409h-0.224l-0.224 -0.447h0.335v0.224l0.335 0.111q0.172 0.276 0.335 0.558a9.846 9.846 0 0 0 0.447 0.447c0.052 -0.508 0.023 -0.801 -0.279 -1.209l-0.158 -0.191c-0.121 -0.164 -0.121 -0.164 -0.121 -0.388l-0.447 -0.111z" fill="#256E3B"/>
  <path d="m228.398 73.043 0.155 0.134c0.434 0.377 0.434 0.377 0.891 0.724 0.183 0.146 0.183 0.146 0.294 0.48l0.224 0.111c-0.038 -0.331 -0.038 -0.331 -0.111 -0.671l-0.224 -0.111 0.111 -0.447c0.214 0.065 0.214 0.065 0.447 0.224 0.092 0.338 0.092 0.338 0.139 0.74l0.05 0.402 0.033 0.311c-0.582 0 -0.582 0 -0.894 -0.224a19.693 19.693 0 0 1 -0.319 -0.58 1.969 1.969 0 0 0 -0.491 -0.51l-0.308 -0.251z" fill="#3E8C40"/>
  <path d="M235.434 69.357h0.335l-0.049 0.186c-0.092 0.388 -0.154 0.779 -0.219 1.17 -0.066 0.319 -0.066 0.319 -0.178 0.628 -0.145 0.466 -0.191 0.924 -0.238 1.408l-0.03 0.282 -0.068 0.681 -0.111 -0.224h-0.224c-0.014 -0.321 -0.014 -0.321 0 -0.671l0.224 -0.224c0.049 -0.281 0.089 -0.555 0.119 -0.838 0.092 -0.812 0.092 -0.812 0.217 -1.061 0.034 -0.319 0.058 -0.638 0.081 -0.956 0.031 -0.272 0.031 -0.272 0.142 -0.383" fill="#479542"/>
  <path d="M235.1 71.703h0.111v2.234h0.224v-0.558h0.111v0.894l-0.558 -0.111c-0.011 -0.83 0 -1.634 0.111 -2.457" fill="#3A8740"/>
  <path d="M224.266 69.134q0.24 -0.014 0.481 -0.021l0.271 -0.012c0.306 0.039 0.398 0.133 0.587 0.368l-0.447 0.111 0.224 0.111v0.224l0.335 0.111 -0.111 0.224 -0.447 -0.224v-0.224h-0.224l-0.224 -0.335c-0.229 -0.134 -0.229 -0.134 -0.447 -0.224z" fill="#226B3B"/>
  <path d="M236.217 71.703c0.07 0.21 0.07 0.21 0.111 0.447l-0.224 0.224c-0.07 0.215 -0.07 0.215 -0.119 0.454 -0.095 0.428 -0.095 0.428 -0.217 0.551a9.846 9.846 0 0 0 -0.063 0.51l-0.028 0.279 -0.02 0.215 -0.558 0.111 0.111 -0.335 0.335 0.111 -0.007 -0.204 -0.006 -0.271 -0.007 -0.267c0.023 -0.29 0.107 -0.457 0.245 -0.71l0.111 -0.398c0.111 -0.384 0.111 -0.384 0.335 -0.719" fill="#55A645"/>
  <path d="M225.719 70.251c0.316 0.009 0.505 0.058 0.729 0.286a13.539 13.539 0 0 1 0.329 0.418c0.19 0.21 0.364 0.29 0.618 0.412 0.219 0.32 0.386 0.658 0.558 1.004 -0.715 -0.588 -1.361 -1.239 -2.011 -1.899z" fill="#2F7A3D"/>
  <path d="m239.902 64.555 0.224 0.111c-0.176 0.335 -0.32 0.546 -0.62 0.782 -0.303 0.25 -0.363 0.422 -0.495 0.782l-0.335 0.224 0.097 -0.182c0.138 -0.274 0.138 -0.274 0.236 -0.62 0.111 -0.314 0.111 -0.314 0.335 -0.426l0.111 -0.335h0.224v-0.224z" fill="#2A743C"/>
  <path d="M226.388 69.804c0.905 0.182 1.345 0.62 1.899 1.34l-0.111 0.224 -0.155 -0.167 -0.208 -0.217 -0.204 -0.215c-0.225 -0.192 -0.373 -0.249 -0.661 -0.294v-0.335l-0.217 -0.042 -0.231 -0.07z" fill="#35813E"/>
  <path d="m229.74 73.378 0.447 0.111 0.224 1.451c-0.421 0 -0.549 -0.026 -0.894 -0.224l0.111 -0.224 0.335 0.111 0.111 -1.004 -0.335 -0.111z" fill="#54A445"/>
  <path d="m228.287 71.367 0.335 0.111v0.224l0.208 0.03c0.239 0.082 0.239 0.082 0.377 0.268 0.193 0.418 0.363 0.801 0.421 1.265 -0.782 -0.943 -0.782 -0.943 -0.782 -1.34l-0.447 -0.111z" fill="#3B8740"/>
  <path d="M224.49 69.469c0.656 0.308 0.656 0.308 0.782 0.558 0.197 0.11 0.393 0.222 0.593 0.325 0.188 0.123 0.188 0.123 0.412 0.458 -0.556 -0.139 -0.928 -0.394 -1.37 -0.745 -0.19 -0.158 -0.19 -0.158 -0.416 -0.262z" fill="#4B9B43"/>
  <path d="m240.642 63.424 0.266 0.015a1.649 1.649 0 0 1 -0.447 0.894h-0.224l-0.111 0.224 0.111 -0.558h0.224v-0.224l-0.335 -0.111c0.224 -0.224 0.224 -0.224 0.517 -0.236" fill="#216A3A"/>
  <path d="M236.552 70.363h0.111c0.032 0.562 0.007 0.887 -0.335 1.34a9.846 9.846 0 0 1 -0.447 0.447c0.058 -0.469 0.236 -0.831 0.454 -1.243 0.119 -0.224 0.119 -0.224 0.217 -0.544" fill="#479542"/>
  <path d="M225.495 69.245h0.671l0.111 0.335 0.671 0.111 0.111 0.335a6.154 6.154 0 0 1 -1.004 -0.335v-0.224l-0.558 -0.111z" fill="#479542"/>
  <path d="M227.951 72.373h0.335v0.224l0.335 0.111a14.769 14.769 0 0 1 0.335 0.558c0.176 0.196 0.176 0.196 0.335 0.335l-0.111 0.224 -0.39 -0.378 -0.22 -0.212c-0.17 -0.191 -0.17 -0.191 -0.17 -0.415h-0.224z" fill="#35813F"/>
  <path d="M235.658 72.261c0.165 0.43 0.043 0.697 -0.111 1.118q-0.062 0.278 -0.111 0.558h-0.224q0.047 -0.356 0.097 -0.711l0.055 -0.401c0.07 -0.338 0.07 -0.338 0.293 -0.562" fill="#256F3B"/>
  <path d="m238.116 65.448 0.111 0.447 -0.894 0.671c0.484 -0.967 0.484 -0.967 0.782 -1.118" fill="#266F3C"/>
  <path d="M222.591 90.02h0.447c-0.117 0.293 -0.185 0.423 -0.46 0.586l-0.21 0.084 -0.224 -0.224 0.335 -0.111z" fill="#053C29"/>
  <path d="M228.398 73.043c0.836 0.687 0.836 0.687 1.118 1.118l-0.111 0.224 -0.134 -0.162 -0.18 -0.213 -0.176 -0.212c-0.188 -0.218 -0.188 -0.218 -0.514 -0.416z" fill="#4F9F44"/>
  <path d="M234.877 72.597h0.111v1.118l-0.111 -0.224h-0.224c-0.014 -0.321 -0.014 -0.321 0 -0.671z" fill="#57A746"/>
  <path d="M235.881 69.469h0.111c0.014 0.321 0.014 0.321 0 0.671l-0.224 0.224q-0.068 0.389 -0.111 0.782h-0.111c-0.034 -0.67 0.036 -1.077 0.335 -1.675" fill="#1C6339"/>
  <path d="M235.434 69.357h0.335a6.154 6.154 0 0 1 -0.335 1.004h-0.111c-0.011 -0.687 -0.011 -0.687 0 -0.894z" fill="#51A144"/>
  <path d="m239.233 65.56 0.224 0.111 -0.335 0.782h-0.224v0.335l-0.335 -0.111 0.21 -0.245a2.831 2.831 0 0 0 0.46 -0.873" fill="#459442"/>
  <path d="m238.339 64.667 0.335 0.111 -0.265 0.39 -0.149 0.22 -0.144 0.172h-0.224c0.057 -0.412 0.122 -0.626 0.447 -0.894" fill="#4E9D44"/>
  <path d="m237.11 66.789 0.224 0.111c-0.293 0.753 -0.293 0.753 -0.671 1.004 0.063 -0.442 0.202 -0.745 0.447 -1.118" fill="#216A3B"/>
  <path d="M168.535 84.324h0.447l0.111 0.782 -0.111 -0.224h-0.335z" fill="#2D5146"/>
  <path d="m198.801 86.669 0.335 0.111 -0.558 0.558 -0.224 -0.224 0.335 -0.111z" fill="#03341E"/>
  <path d="M203.716 84.101h0.111v0.558h-0.335l-0.111 0.335v-0.671h0.335z" fill="#054A3A"/>
  <path d="m239.455 64.108 0.111 0.335c-0.418 0.335 -0.418 0.335 -0.671 0.335 0.153 -0.352 0.223 -0.446 0.558 -0.671" fill="#226B3B"/>
  <path d="m240.685 63.662 0.224 0.111a12.308 12.308 0 0 1 -0.447 0.558h-0.224l-0.111 0.224 0.111 -0.558h0.335z" fill="#307B3D"/>
  <path d="m241.467 62.992 -0.111 0.447 -0.224 -0.111 0.111 -0.224 -0.558 0.111v-0.224c0.351 -0.117 0.446 -0.105 0.782 0" fill="#4F9F44"/>
</svg>
